<?xml version="1.0" encoding="UTF-8" standalone="no"?>
<!-- Created with Inkscape (http://www.inkscape.org/) -->

<svg
   width="85.195831mm"
   height="58.994766mm"
   viewBox="0 0 85.195831 58.994766"
   version="1.1"
   id="svg32163"
   inkscape:version="1.1.1 (3bf5ae0d25, 2021-09-20)"
   sodipodi:docname="0x.svg"
   xmlns:inkscape="http://www.inkscape.org/namespaces/inkscape"
   xmlns:sodipodi="http://sodipodi.sourceforge.net/DTD/sodipodi-0.dtd"
   xmlns="http://www.w3.org/2000/svg"
   xmlns:svg="http://www.w3.org/2000/svg">
  <sodipodi:namedview
     id="namedview32165"
     pagecolor="#ffffff"
     bordercolor="#666666"
     borderopacity="1.0"
     inkscape:pageshadow="2"
     inkscape:pageopacity="0.0"
     inkscape:pagecheckerboard="0"
     inkscape:document-units="mm"
     showgrid="false"
     fit-margin-top="0"
     fit-margin-left="0"
     fit-margin-right="0"
     fit-margin-bottom="0"
     inkscape:zoom="1.28"
     inkscape:cx="216.79688"
     inkscape:cy="234.76562"
     inkscape:window-width="2554"
     inkscape:window-height="1375"
     inkscape:window-x="0"
     inkscape:window-y="32"
     inkscape:window-maximized="1"
     inkscape:current-layer="text15191" />
  <defs
     id="defs32160">
    <rect
       x="52.387977"
       y="67.712045"
       width="299.36639"
       height="186.74981"
       id="rect3461" />
    <rect
       x="113.92185"
       y="162.33429"
       width="492.5661"
       height="234.32812"
       id="rect35482" />
  </defs>
  <g
     inkscape:groupmode="layer"
     id="layer2"
     inkscape:label="Layer 2" />
  <g
     inkscape:label="Layer 1"
     inkscape:groupmode="layer"
     id="layer1"
     transform="translate(-53.799151,-73.073405)">
    <text
       xml:space="preserve"
       transform="scale(0.26458333)"
       id="text35480"
       style="font-style:normal;font-weight:normal;font-size:40px;line-height:1.25;font-family:sans-serif;white-space:pre;shape-inside:url(#rect35482);fill:#000000;fill-opacity:1;stroke:none" />
    <path
       id="path67818"
       style="fill:#000000;stroke-width:0.999999"
       d="M 161.36328 0 C 54.710814 0 3.2434418 0.33414844 1.9335938 1.0351562 C 0.039320968 2.0489276 2.9605947e-16 4.3342495 0 111.48633 C 0 214.63625 0.100206 220.95901 1.75 221.91992 C 2.918029 222.60035 55.936108 222.94985 161.17773 222.96875 C 303.21463 222.99615 319.01219 222.84328 320.42773 221.42773 C 321.83701 220.0185 322 208.67313 322 111.5 C 322 14.326828 321.83697 2.9815041 320.42773 1.5722656 C 319.01245 0.15701023 303.20658 0 161.36328 0 z M 11 11 L 161 11 L 311 11 L 311 111.5 L 311 212 L 161 212 L 11 212 L 11 111.5 L 11 11 z M 15.5 15.5 L 15.4375 111.64062 L 15.376953 207.7832 L 160.89844 207.64062 L 306.41992 207.5 L 15.5 207.5 L 15.5 15.5 z M 306.41992 207.5 L 306.42188 111.5 L 306.42578 15.5 L 306.41992 15.5 L 306.41992 207.5 z "
       transform="matrix(0.26458333,0,0,0.26458333,53.799151,73.073405)" />
    <g
       aria-label="~"
       transform="matrix(0.29075869,0,0,0.2632412,66.29827,72.693531)"
       id="text3459"
       style="font-size:40px;line-height:1.25;white-space:pre;shape-inside:url(#rect3461)">
      <text
         xml:space="preserve"
         style="font-style:normal;font-weight:normal;font-size:38.2542px;line-height:1.25;font-family:sans-serif;fill:#000000;fill-opacity:1;stroke:none;stroke-width:0.956355"
         x="138.39583"
         y="118.40756"
         id="text2677"
         transform="scale(0.95150391,1.0509678)"><tspan
           sodipodi:role="line"
           id="tspan2675"
           style="stroke-width:0.956355" /></text>
      <g
         aria-label="0x"
         transform="scale(0.95150393,1.0509678)"
         id="text15191"
         style="font-size:127.514px;word-spacing:0px;stroke-width:0.956355">
        <path
           d="m 41.457825,54.306276 q 0.892598,-2.040224 8.543438,-5.865644 11.47626,-5.228074 18.872072,-2.422766 3.442878,1.27514 4.016691,3.761663 0.573813,2.486523 -0.828841,7.842111 -1.530168,6.3757 -1.91271,12.623886 -0.127514,3.570392 -0.892598,8.798466 -0.63757,4.973046 -1.530168,9.436036 -0.892598,4.207962 -1.657682,5.73813 -0.892598,1.530168 -3.952934,9.436032 -3.060336,7.90587 -4.080448,11.09372 -0.892598,2.6778 0.510056,4.71802 1.402654,2.04022 3.697906,1.53017 1.530168,-0.51006 1.976467,-0.19127 0.446299,0.31878 0.06376,1.72144 -0.255028,2.29525 -2.932822,2.16773 -2.677794,-0.38254 -4.080448,3.69791 -3.697906,9.56355 -8.479681,17.02312 -4.781775,7.45957 -7.204541,7.45957 -1.530168,0 -2.805308,1.78519 -1.785196,1.7852 -8.543438,2.6778 -13.899026,1.78519 -16.704334,-8.54344 -1.402654,-5.73813 -0.191271,-18.87207 1.211383,-13.13394 4.144205,-19.89219 1.147626,-2.67779 1.530168,-5.61061 1.020112,-4.71802 3.060336,-11.476262 2.040224,-6.885756 2.805308,-7.778354 1.147626,-1.785196 1.657682,-5.10056 0.892598,-3.82542 4.590504,-8.670952 3.697906,-5.10056 3.697906,-5.993158 0,-1.147626 2.932822,-4.845532 2.55028,-3.570392 3.697906,-6.248186 z m 13.643998,12.496372 q -0.63757,-1.530168 -0.765084,-2.422766 -0.765084,-2.167738 -2.167738,-2.167738 -1.402654,0 -2.167738,2.167738 -0.765084,2.422766 -7.905868,11.47626 -7.268298,9.56355 -7.268298,10.583662 0,1.402654 -2.55028,9.818578 -8.160896,27.670538 -8.798466,41.059508 l -0.382542,7.52333 4.207962,0.25502 q 4.080448,0.51006 7.01327,-2.29525 4.080448,-3.82542 7.459569,-10.00985 3.379121,-6.18443 4.909289,-12.81515 2.167738,-8.54344 5.10056,-19.50965 2.805308,-10.711172 2.805308,-15.42919 0,-4.46299 1.27514,-9.181008 0.63757,-2.040224 0.63757,-3.697906 0,-1.657682 -0.255028,-2.677794 -0.382542,-1.147626 -1.147626,-2.677794 z"
           style="font-family:'Beth Ellen';-inkscape-font-specification:'Beth Ellen'"
           id="path20952" />
        <path
           d="m 196.45113,128.13688 q 2.80531,-2.29525 4.84553,-1.84895 2.04023,0.4463 2.16774,4.01669 0,1.14763 -0.51006,2.29525 -0.51005,1.14763 -1.14762,1.97647 -0.63757,0.82884 -1.91271,1.84895 -1.27514,1.02011 -1.97647,1.53017 -0.70133,0.51006 -2.16774,1.53017 -1.46641,1.02011 -1.84895,1.14762 -3.06034,2.16774 -6.24819,3.44288 -0.51005,0.25503 -2.42276,1.27514 -1.91271,2.16774 -6.75824,3.57039 -4.33548,1.91271 -14.5366,1.40266 -10.83869,-0.63757 -16.83185,-7.01327 -3.31536,-3.44288 -4.97304,-3.44288 -1.53017,0 -15.81174,15.42919 -14.66411,15.30168 -16.32179,15.30168 -1.02011,0 -2.99658,-1.59392 -1.97647,-1.59393 -3.63415,-3.50664 -1.65768,-1.91271 -1.65768,-2.93282 0,-1.40265 15.68422,-17.3419 15.68422,-16.06677 16.83185,-18.2345 1.27514,-2.42277 0.0637,-9.69107 -1.21138,-7.2683 -4.46299,-10.0736 -3.2516,-2.80531 -8.03338,-0.8926 -4.78177,1.91271 -9.18101,4.65426 -4.39923,2.74155 -9.94609,8.47968 -5.546857,5.73813 -8.097137,8.54344 -2.55028,2.80531 -5.73813,6.75824 h -0.127514 q -3.315364,3.95293 -5.865644,3.06034 -1.020112,-0.38255 -2.422766,-2.04023 -1.27514,-1.27514 -1.402654,-2.16774 -0.127514,-1.40265 1.657682,-3.44287 1.27514,-1.40266 4.526747,-5.29183 3.251607,-3.88918 4.845532,-5.67438 1.593925,-1.78519 4.781775,-5.22807 3.18785,-3.44288 5.228079,-5.22808 2.04022,-1.78519 5.22807,-4.5905 3.18785,-2.80531 5.86564,-4.335476 2.6778,-1.530168 6.05692,-3.251607 3.37912,-1.721439 6.822,-2.677794 3.44288,-0.956355 7.14078,-1.466411 4.97305,-0.382542 6.94951,0.191271 1.97647,0.573813 4.65427,2.614037 3.95293,3.442878 5.22807,8.28841 0.8926,4.84553 3.18785,5.61062 -0.12751,-0.12752 5.16432,-4.78178 5.29183,-4.65426 11.22123,-9.563549 5.9294,-4.909289 7.07703,-5.546859 0.51005,-0.255028 1.33889,-0.765084 0.82884,-0.510056 1.40266,-0.828841 0.57381,-0.318785 1.33889,-0.63757 0.76509,-0.318785 1.40266,-0.318785 1.78519,0 4.33547,2.231495 2.55028,2.231495 2.55028,3.634149 0,1.91271 -5.61061,7.969624 -5.61062,6.05692 -7.2683,6.05692 -1.02011,0 -4.39923,2.86906 -3.37912,2.86907 -6.94952,6.56697 l -9.43603,9.56355 1.53017,5.10056 q 1.40265,5.10056 6.12067,7.90587 3.31536,2.04022 4.97304,2.2315 1.65769,0.19127 5.86565,-0.95636 0.63757,-0.12751 2.67779,-0.82884 2.04023,-0.70133 3.88918,-1.21138 1.84895,-0.51006 3.25161,-0.51006 9.30852,-4.84553 14.79162,-9.18101 z"
           style="font-family:'Beth Ellen';-inkscape-font-specification:'Beth Ellen'"
           id="path20954" />
      </g>
      <text
         xml:space="preserve"
         style="font-style:normal;font-weight:normal;font-size:127.514px;line-height:1.25;font-family:sans-serif;word-spacing:0px;white-space:pre;shape-inside:url(#rect3461);fill:#000000;fill-opacity:1;stroke:none;stroke-width:0.956355"
         x="-121.2738"
         y="113.77417"
         id="text15191-3"
         transform="matrix(0.95150392,0,0,1.0509678,-13.031828,-13.485732)" />
    </g>
  </g>
</svg>
