<?xml version="1.0" encoding="UTF-8" standalone="no"?>
<!-- Created with Inkscape (http://www.inkscape.org/) -->

<svg
   width="85.195831mm"
   height="58.994766mm"
   viewBox="0 0 85.195831 58.994766"
   version="1.1"
   id="svg32163"
   inkscape:version="1.1.1 (3bf5ae0d25, 2021-09-20)"
   sodipodi:docname="1x.svg"
   xmlns:inkscape="http://www.inkscape.org/namespaces/inkscape"
   xmlns:sodipodi="http://sodipodi.sourceforge.net/DTD/sodipodi-0.dtd"
   xmlns="http://www.w3.org/2000/svg"
   xmlns:svg="http://www.w3.org/2000/svg">
  <sodipodi:namedview
     id="namedview32165"
     pagecolor="#ffffff"
     bordercolor="#666666"
     borderopacity="1.0"
     inkscape:pageshadow="2"
     inkscape:pageopacity="0.0"
     inkscape:pagecheckerboard="0"
     inkscape:document-units="mm"
     showgrid="false"
     fit-margin-top="0"
     fit-margin-left="0"
     fit-margin-right="0"
     fit-margin-bottom="0"
     inkscape:zoom="1.28"
     inkscape:cx="216.79688"
     inkscape:cy="234.76562"
     inkscape:window-width="2554"
     inkscape:window-height="1375"
     inkscape:window-x="0"
     inkscape:window-y="32"
     inkscape:window-maximized="1"
     inkscape:current-layer="text3459" />
  <defs
     id="defs32160">
    <rect
       x="52.387977"
       y="67.712045"
       width="299.36639"
       height="186.74981"
       id="rect3461" />
    <rect
       x="113.92185"
       y="162.33429"
       width="492.5661"
       height="234.32812"
       id="rect35482" />
  </defs>
  <g
     inkscape:groupmode="layer"
     id="layer2"
     inkscape:label="Layer 2" />
  <g
     inkscape:label="Layer 1"
     inkscape:groupmode="layer"
     id="layer1"
     transform="translate(-53.799151,-73.073405)">
    <text
       xml:space="preserve"
       transform="scale(0.26458333)"
       id="text35480"
       style="font-style:normal;font-weight:normal;font-size:40px;line-height:1.25;font-family:sans-serif;white-space:pre;shape-inside:url(#rect35482);fill:#000000;fill-opacity:1;stroke:none" />
    <path
       id="path67818"
       style="fill:#000000;stroke-width:0.999999"
       d="M 161.36328 0 C 54.710814 0 3.2434418 0.33414844 1.9335938 1.0351562 C 0.039320968 2.0489276 2.9605947e-16 4.3342495 0 111.48633 C 0 214.63625 0.100206 220.95901 1.75 221.91992 C 2.918029 222.60035 55.936108 222.94985 161.17773 222.96875 C 303.21463 222.99615 319.01219 222.84328 320.42773 221.42773 C 321.83701 220.0185 322 208.67313 322 111.5 C 322 14.326828 321.83697 2.9815041 320.42773 1.5722656 C 319.01245 0.15701023 303.20658 0 161.36328 0 z M 11 11 L 161 11 L 311 11 L 311 111.5 L 311 212 L 161 212 L 11 212 L 11 111.5 L 11 11 z M 15.5 15.5 L 15.4375 111.64062 L 15.376953 207.7832 L 160.89844 207.64062 L 306.41992 207.5 L 15.5 207.5 L 15.5 15.5 z M 306.41992 207.5 L 306.42188 111.5 L 306.42578 15.5 L 306.41992 15.5 L 306.41992 207.5 z "
       transform="matrix(0.26458333,0,0,0.26458333,53.799151,73.073405)" />
    <g
       aria-label="~"
       transform="matrix(0.29075869,0,0,0.2632412,66.29827,72.693531)"
       id="text3459"
       style="font-size:40px;line-height:1.25;white-space:pre;shape-inside:url(#rect3461)">
      <text
         xml:space="preserve"
         style="font-style:normal;font-weight:normal;font-size:38.2542px;line-height:1.25;font-family:sans-serif;fill:#000000;fill-opacity:1;stroke:none;stroke-width:0.956355"
         x="138.39583"
         y="118.40756"
         id="text2677"
         transform="scale(0.95150391,1.0509678)"><tspan
           sodipodi:role="line"
           id="tspan2675"
           style="stroke-width:0.956355" /></text>
      <g
         aria-label="1x"
         transform="scale(0.95150393,1.0509678)"
         id="text15191"
         style="font-size:127.514px;word-spacing:0px;stroke-width:0.956355">
        <path
           d="m 29.726537,50.098314 5.993158,-1.91271 q 15.174166,-4.46299 23.080034,-7.778354 0.127514,2.677794 0.510056,4.845532 0.382542,2.167738 0.765084,4.399233 0.382542,2.231495 0.510056,4.909289 0,3.952934 -1.147626,9.946092 -1.147626,5.993158 -2.359009,9.946092 -1.211383,3.952934 -3.570392,11.221232 -2.359009,7.268298 -2.741551,8.543438 -0.510056,1.530168 -3.889177,10.456152 -3.379121,8.92598 -4.144205,13.77151 0,0.25503 -0.06376,0.82884 -0.06376,0.57381 -0.127514,0.95635 -0.06376,0.38255 -0.191271,1.02012 -0.127514,0.63757 -0.255028,1.08387 -0.127514,0.44629 -0.318785,0.89259 -0.191271,0.4463 -0.446299,0.76509 -0.255028,0.31878 -0.573813,0.51005 -0.318785,0.19127 -0.765084,0.19127 -0.446299,0 -0.956355,-0.25502 -2.295252,5.61061 -2.55028,6.50321 -2.55028,7.2683 -6.503214,19.25461 -0.255028,0.8926 -0.765084,2.55028 -0.510056,1.65769 -0.956355,3.06034 -0.446299,1.40265 -0.956355,2.55028 -0.63757,1.91271 -2.55028,2.42277 -1.91271,0.51005 -3.634149,0.19127 -1.721439,-0.31879 -4.590504,-1.14763 -2.869065,-0.82884 -3.761663,-1.08387 1.020112,-3.57039 2.996579,-10.0736 1.976467,-6.50322 2.869065,-9.30853 3.570392,-12.11383 13.580241,-39.401822 10.009849,-27.287996 13.452727,-39.019284 -11.731288,4.973046 -14.02654,5.10056 -0.892598,0 -3.570392,1.721439 -2.677794,1.721439 -3.952934,1.083869 -0.127514,-0.63757 -0.382542,-2.231495 -0.255028,-1.593925 -0.318785,-2.359009 -0.06376,-0.765084 0.06376,-1.91271 0.127514,-1.147626 0.63757,-2.040224 0.765084,-1.402654 2.55028,-2.869065 1.785196,-1.466411 2.677794,-3.060336 0.892598,-1.593925 0.382542,-4.271719 z"
           style="font-family:'Beth Ellen';-inkscape-font-specification:'Beth Ellen'"
           id="path23528" />
        <path
           d="m 183.95481,128.13688 q 2.80531,-2.29525 4.84553,-1.84895 2.04023,0.4463 2.16774,4.01669 0,1.14763 -0.51006,2.29525 -0.51005,1.14763 -1.14762,1.97647 -0.63757,0.82884 -1.91271,1.84895 -1.27514,1.02011 -1.97647,1.53017 -0.70133,0.51006 -2.16774,1.53017 -1.46641,1.02011 -1.84895,1.14762 -3.06034,2.16774 -6.24819,3.44288 -0.51005,0.25503 -2.42276,1.27514 -1.91271,2.16774 -6.75824,3.57039 -4.33548,1.91271 -14.5366,1.40266 -10.83869,-0.63757 -16.83185,-7.01327 -3.31536,-3.44288 -4.97304,-3.44288 -1.53017,0 -15.81174,15.42919 -14.664109,15.30168 -16.321791,15.30168 -1.020112,0 -2.996579,-1.59392 -1.976467,-1.59393 -3.634149,-3.50664 -1.657682,-1.91271 -1.657682,-2.93282 0,-1.40265 15.684221,-17.3419 15.68422,-16.06677 16.83185,-18.2345 1.27514,-2.42277 0.0638,-9.69107 -1.21139,-7.2683 -4.46299,-10.0736 -3.25161,-2.80531 -8.03339,-0.8926 -4.78177,1.91271 -9.181,4.65426 -4.399237,2.74155 -9.946096,8.47968 -5.546859,5.73813 -8.097139,8.54344 -2.55028,2.80531 -5.73813,6.75824 h -0.127514 q -3.315364,3.95293 -5.865644,3.06034 -1.020112,-0.38255 -2.422766,-2.04023 -1.27514,-1.27514 -1.402654,-2.16774 -0.127514,-1.40265 1.657682,-3.44287 1.27514,-1.40266 4.526747,-5.29183 3.251607,-3.88918 4.845532,-5.67438 1.593925,-1.78519 4.781775,-5.22807 3.18785,-3.44288 5.228074,-5.22808 2.040224,-1.78519 5.228074,-4.5905 3.18785,-2.80531 5.865644,-4.335476 2.677795,-1.530168 6.056915,-3.251607 3.37912,-1.721439 6.822,-2.677794 3.44288,-0.956355 7.14078,-1.466411 4.97305,-0.382542 6.94952,0.191271 1.97646,0.573813 4.65426,2.614037 3.95293,3.442878 5.22807,8.28841 0.8926,4.84553 3.18785,5.61062 -0.12751,-0.12752 5.16432,-4.78178 5.29183,-4.65426 11.22123,-9.563549 5.9294,-4.909289 7.07703,-5.546859 0.51005,-0.255028 1.33889,-0.765084 0.82884,-0.510056 1.40266,-0.828841 0.57381,-0.318785 1.33889,-0.63757 0.76509,-0.318785 1.40266,-0.318785 1.78519,0 4.33547,2.231495 2.55028,2.231495 2.55028,3.634149 0,1.91271 -5.61061,7.969624 -5.61062,6.05692 -7.2683,6.05692 -1.02011,0 -4.39923,2.86906 -3.37912,2.86907 -6.94952,6.56697 l -9.43603,9.56355 1.53017,5.10056 q 1.40265,5.10056 6.12067,7.90587 3.31536,2.04022 4.97304,2.2315 1.65769,0.19127 5.86565,-0.95636 0.63757,-0.12751 2.67779,-0.82884 2.04023,-0.70133 3.88918,-1.21138 1.84895,-0.51006 3.25161,-0.51006 9.30852,-4.84553 14.79162,-9.18101 z"
           style="font-family:'Beth Ellen';-inkscape-font-specification:'Beth Ellen'"
           id="path23530" />
      </g>
      <text
         xml:space="preserve"
         style="font-style:normal;font-weight:normal;font-size:127.514px;line-height:1.25;font-family:sans-serif;word-spacing:0px;white-space:pre;shape-inside:url(#rect3461);fill:#000000;fill-opacity:1;stroke:none;stroke-width:0.956355"
         x="-121.2738"
         y="113.77417"
         id="text15191-3"
         transform="matrix(0.95150392,0,0,1.0509678,-13.031828,-13.485732)" />
    </g>
  </g>
</svg>
