<?xml version="1.0" encoding="UTF-8" standalone="no"?>
<!-- Created with Inkscape (http://www.inkscape.org/) -->

<svg
   width="85.195831mm"
   height="58.994766mm"
   viewBox="0 0 85.195831 58.994766"
   version="1.1"
   id="svg32163"
   inkscape:version="1.1.1 (3bf5ae0d25, 2021-09-20)"
   sodipodi:docname="2x.svg"
   xmlns:inkscape="http://www.inkscape.org/namespaces/inkscape"
   xmlns:sodipodi="http://sodipodi.sourceforge.net/DTD/sodipodi-0.dtd"
   xmlns="http://www.w3.org/2000/svg"
   xmlns:svg="http://www.w3.org/2000/svg">
  <sodipodi:namedview
     id="namedview32165"
     pagecolor="#ffffff"
     bordercolor="#666666"
     borderopacity="1.0"
     inkscape:pageshadow="2"
     inkscape:pageopacity="0.0"
     inkscape:pagecheckerboard="0"
     inkscape:document-units="mm"
     showgrid="false"
     fit-margin-top="0"
     fit-margin-left="0"
     fit-margin-right="0"
     fit-margin-bottom="0"
     inkscape:zoom="1.28"
     inkscape:cx="216.79688"
     inkscape:cy="234.76562"
     inkscape:window-width="2554"
     inkscape:window-height="1375"
     inkscape:window-x="0"
     inkscape:window-y="32"
     inkscape:window-maximized="1"
     inkscape:current-layer="text3459" />
  <defs
     id="defs32160">
    <rect
       x="52.387977"
       y="67.712045"
       width="299.36639"
       height="186.74981"
       id="rect3461" />
    <rect
       x="113.92185"
       y="162.33429"
       width="492.5661"
       height="234.32812"
       id="rect35482" />
  </defs>
  <g
     inkscape:groupmode="layer"
     id="layer2"
     inkscape:label="Layer 2" />
  <g
     inkscape:label="Layer 1"
     inkscape:groupmode="layer"
     id="layer1"
     transform="translate(-53.799151,-73.073405)">
    <text
       xml:space="preserve"
       transform="scale(0.26458333)"
       id="text35480"
       style="font-style:normal;font-weight:normal;font-size:40px;line-height:1.25;font-family:sans-serif;white-space:pre;shape-inside:url(#rect35482);fill:#000000;fill-opacity:1;stroke:none" />
    <path
       id="path67818"
       style="fill:#000000;stroke-width:0.999999"
       d="M 161.36328 0 C 54.710814 0 3.2434418 0.33414844 1.9335938 1.0351562 C 0.039320968 2.0489276 2.9605947e-16 4.3342495 0 111.48633 C 0 214.63625 0.100206 220.95901 1.75 221.91992 C 2.918029 222.60035 55.936108 222.94985 161.17773 222.96875 C 303.21463 222.99615 319.01219 222.84328 320.42773 221.42773 C 321.83701 220.0185 322 208.67313 322 111.5 C 322 14.326828 321.83697 2.9815041 320.42773 1.5722656 C 319.01245 0.15701023 303.20658 0 161.36328 0 z M 11 11 L 161 11 L 311 11 L 311 111.5 L 311 212 L 161 212 L 11 212 L 11 111.5 L 11 11 z M 15.5 15.5 L 15.4375 111.64062 L 15.376953 207.7832 L 160.89844 207.64062 L 306.41992 207.5 L 15.5 207.5 L 15.5 15.5 z M 306.41992 207.5 L 306.42188 111.5 L 306.42578 15.5 L 306.41992 15.5 L 306.41992 207.5 z "
       transform="matrix(0.26458333,0,0,0.26458333,53.799151,73.073405)" />
    <g
       aria-label="~"
       transform="matrix(0.29075869,0,0,0.2632412,66.29827,72.693531)"
       id="text3459"
       style="font-size:40px;line-height:1.25;white-space:pre;shape-inside:url(#rect3461)">
      <text
         xml:space="preserve"
         style="font-style:normal;font-weight:normal;font-size:38.2542px;line-height:1.25;font-family:sans-serif;fill:#000000;fill-opacity:1;stroke:none;stroke-width:0.956355"
         x="138.39583"
         y="118.40756"
         id="text2677"
         transform="scale(0.95150391,1.0509678)"><tspan
           sodipodi:role="line"
           id="tspan2675"
           style="stroke-width:0.956355" /></text>
      <g
         aria-label="2x"
         transform="scale(0.95150393,1.0509678)"
         id="text15191"
         style="font-size:127.514px;word-spacing:0px;stroke-width:0.956355">
        <path
           d="m 69.446229,49.116843 q 5.355588,-2.422766 6.885756,-2.932822 7.905868,-2.805308 13.197699,3.697906 5.291831,6.503214 4.526747,18.362016 -0.255028,5.993158 0.892598,10.328634 0.510056,2.55028 0.191271,3.697906 -0.318785,1.147626 -2.231495,2.295252 -3.18785,2.167738 -6.3757,7.778354 -9.181008,16.066761 -17.596932,25.757831 -13.771512,15.30168 -13.771512,17.21439 0,0.89259 -2.677794,3.95293 -5.10056,5.22807 5.10056,6.3757 3.697906,0.25503 10.073606,0.12751 8.798466,-0.38254 11.221232,-0.38254 3.442878,0 6.630728,2.10398 3.18785,2.10398 3.18785,4.39924 0,2.67779 -2.677794,4.65426 -2.677794,1.97646 -6.184429,1.59392 -3.506635,-0.38254 -10.264877,0.63757 -5.993158,1.14763 -9.691064,-1.14762 -1.147626,-0.76509 -2.677794,-1.27514 -1.530168,-0.51006 -3.315364,-0.8926 -1.657682,-0.38254 -2.932822,-0.51006 -0.63757,-0.12751 -3.570392,-0.51005 -2.167738,-0.38255 -3.570392,-0.51006 -4.335476,-0.8926 -10.583662,1.91271 -13.38897,5.86564 -22.569978,1.27514 -9.1810083,-4.84553 -2.6777943,-11.34875 1.530168,-1.40265 3.5066353,-1.84895 1.976467,-0.4463 6.566971,-0.31878 8.033382,0.25502 12.241344,-2.04023 3.697906,-1.91271 8.862223,-7.14078 5.164317,-5.22808 9.244765,-11.09372 3.18785,-4.46299 10.583662,-14.02654 22.059922,-28.563135 19.254614,-39.911881 -0.765084,-2.677794 -3.761663,-2.932822 -2.996579,-0.255028 -10.519905,1.785196 -4.46299,1.147626 -6.821999,2.741551 -2.359009,1.593925 -6.184429,6.056915 -5.228074,5.610616 -7.969625,6.311943 -2.741551,0.701327 -5.801887,-2.614037 l -2.677794,-2.805308 8.798466,-9.436036 q 7.778354,-7.905868 12.7514,-11.603774 5.10056,-3.697906 13.38897,-7.778354 z"
           style="font-family:'Beth Ellen';-inkscape-font-specification:'Beth Ellen'"
           id="path33250" />
        <path
           d="m 218.70138,130.47077 q 2.80531,-2.29525 4.84553,-1.84895 2.04023,0.4463 2.16774,4.01669 0,1.14763 -0.51006,2.29525 -0.51005,1.14763 -1.14762,1.97647 -0.63757,0.82884 -1.91271,1.84895 -1.27514,1.02012 -1.97647,1.53017 -0.70133,0.51006 -2.16774,1.53017 -1.46641,1.02011 -1.84895,1.14763 -3.06034,2.16773 -6.24819,3.44287 -0.51005,0.25503 -2.42276,1.27514 -1.91271,2.16774 -6.75824,3.5704 -4.33548,1.91271 -14.5366,1.40265 -10.83869,-0.63757 -16.83185,-7.01327 -3.31536,-3.44288 -4.97304,-3.44288 -1.53017,0 -15.81174,15.4292 -14.66411,15.30168 -16.32179,15.30168 -1.02011,0 -2.99658,-1.59393 -1.97647,-1.59392 -3.63415,-3.50663 -1.65768,-1.91271 -1.65768,-2.93283 0,-1.40265 15.68422,-17.3419 15.68422,-16.06676 16.83185,-18.2345 1.27514,-2.42277 0.0637,-9.69107 -1.21138,-7.26829 -4.46299,-10.0736 -3.2516,-2.80531 -8.03338,-0.8926 -4.78177,1.91271 -9.18101,4.65426 -4.39923,2.74155 -9.94609,8.47968 -5.54686,5.73813 -8.09714,8.54344 -2.55028,2.80531 -5.73813,6.75824 h -0.12751 q -3.31536,3.95294 -5.86564,3.06034 -1.02012,-0.38254 -2.42277,-2.04023 -1.27514,-1.27514 -1.40265,-2.16773 -0.12752,-1.40266 1.65768,-3.44288 1.27514,-1.40266 4.52674,-5.29183 3.25161,-3.88918 4.84554,-5.67438 1.59392,-1.78519 4.78177,-5.22807 3.18785,-3.44288 5.22808,-5.22807 2.04022,-1.7852 5.22807,-4.59051 3.18785,-2.8053 5.86564,-4.33547 2.6778,-1.53017 6.05692,-3.25161 3.37912,-1.721439 6.822,-2.677794 3.44288,-0.956355 7.14078,-1.466411 4.97305,-0.382542 6.94951,0.191271 1.97647,0.573813 4.65427,2.614037 3.95293,3.442877 5.22807,8.288407 0.8926,4.84554 3.18785,5.61062 -0.12751,-0.12751 5.16432,-4.78178 5.29183,-4.65426 11.22123,-9.563546 5.9294,-4.909289 7.07703,-5.546859 0.51005,-0.255028 1.33889,-0.765084 0.82884,-0.510056 1.40266,-0.828841 0.57381,-0.318785 1.33889,-0.63757 0.76509,-0.318785 1.40266,-0.318785 1.78519,0 4.33547,2.231495 2.55028,2.231495 2.55028,3.634149 0,1.91271 -5.61061,7.969621 -5.61062,6.05692 -7.2683,6.05692 -1.02011,0 -4.39923,2.86906 -3.37912,2.86907 -6.94952,6.56697 l -9.43603,9.56355 1.53017,5.10056 q 1.40265,5.10056 6.12067,7.90587 3.31536,2.04023 4.97304,2.2315 1.65769,0.19127 5.86565,-0.95636 0.63757,-0.12751 2.67779,-0.82884 2.04023,-0.70133 3.88918,-1.21138 1.84895,-0.51006 3.25161,-0.51006 9.30852,-4.84553 14.79162,-9.18101 z"
           style="font-family:'Beth Ellen';-inkscape-font-specification:'Beth Ellen'"
           id="path33252" />
      </g>
      <text
         xml:space="preserve"
         style="font-style:normal;font-weight:normal;font-size:127.514px;line-height:1.25;font-family:sans-serif;word-spacing:0px;white-space:pre;shape-inside:url(#rect3461);fill:#000000;fill-opacity:1;stroke:none;stroke-width:0.956355"
         x="-121.2738"
         y="113.77417"
         id="text15191-3"
         transform="matrix(0.95150392,0,0,1.0509678,-13.031828,-13.485732)" />
    </g>
  </g>
</svg>
