<?xml version="1.0" encoding="UTF-8" standalone="no"?>
<!-- Created with Inkscape (http://www.inkscape.org/) -->

<svg
   width="85.195831mm"
   height="58.994766mm"
   viewBox="0 0 85.195831 58.994766"
   version="1.1"
   id="svg32163"
   inkscape:version="1.1 (c68e22c387, 2021-05-23)"
   sodipodi:docname="abstention.svg"
   xmlns:inkscape="http://www.inkscape.org/namespaces/inkscape"
   xmlns:sodipodi="http://sodipodi.sourceforge.net/DTD/sodipodi-0.dtd"
   xmlns="http://www.w3.org/2000/svg"
   xmlns:svg="http://www.w3.org/2000/svg">
  <sodipodi:namedview
     id="namedview32165"
     pagecolor="#ffffff"
     bordercolor="#666666"
     borderopacity="1.0"
     inkscape:pageshadow="2"
     inkscape:pageopacity="0.0"
     inkscape:pagecheckerboard="0"
     inkscape:document-units="mm"
     showgrid="false"
     fit-margin-top="0"
     fit-margin-left="0"
     fit-margin-right="0"
     fit-margin-bottom="0"
     inkscape:zoom="1.28"
     inkscape:cx="219.14062"
     inkscape:cy="234.76562"
     inkscape:window-width="2554"
     inkscape:window-height="1375"
     inkscape:window-x="0"
     inkscape:window-y="32"
     inkscape:window-maximized="1"
     inkscape:current-layer="layer1" />
  <defs
     id="defs32160">
    <rect
       x="52.387977"
       y="67.712045"
       width="299.36639"
       height="186.74981"
       id="rect3461" />
    <rect
       x="113.92185"
       y="162.33429"
       width="492.5661"
       height="234.32812"
       id="rect35482" />
  </defs>
  <g
     inkscape:groupmode="layer"
     id="layer2"
     inkscape:label="Layer 2" />
  <g
     inkscape:label="Layer 1"
     inkscape:groupmode="layer"
     id="layer1"
     transform="translate(-53.799151,-73.073405)">
    <text
       xml:space="preserve"
       transform="scale(0.26458333)"
       id="text35480"
       style="font-style:normal;font-weight:normal;font-size:40px;line-height:1.25;font-family:sans-serif;white-space:pre;shape-inside:url(#rect35482);fill:#000000;fill-opacity:1;stroke:none" />
    <path
       id="path67818"
       style="fill:#000000;stroke-width:0.999999"
       d="M 161.36328 0 C 54.710814 0 3.2434418 0.33414844 1.9335938 1.0351562 C 0.039320968 2.0489276 2.9605947e-16 4.3342495 0 111.48633 C 0 214.63625 0.100206 220.95901 1.75 221.91992 C 2.918029 222.60035 55.936108 222.94985 161.17773 222.96875 C 303.21463 222.99615 319.01219 222.84328 320.42773 221.42773 C 321.83701 220.0185 322 208.67313 322 111.5 C 322 14.326828 321.83697 2.9815041 320.42773 1.5722656 C 319.01245 0.15701023 303.20658 0 161.36328 0 z M 11 11 L 161 11 L 311 11 L 311 111.5 L 311 212 L 161 212 L 11 212 L 11 111.5 L 11 11 z M 15.5 15.5 L 15.4375 111.64062 L 15.376953 207.7832 L 160.89844 207.64062 L 306.41992 207.5 L 15.5 207.5 L 15.5 15.5 z M 306.41992 207.5 L 306.42188 111.5 L 306.42578 15.5 L 306.41992 15.5 L 306.41992 207.5 z "
       transform="matrix(0.26458333,0,0,0.26458333,53.799151,73.073405)" />
    <g
       aria-label="~"
       transform="matrix(0.29075869,0,0,0.2632412,66.29827,72.693531)"
       id="text3459"
       style="font-size:40px;line-height:1.25;white-space:pre;shape-inside:url(#rect3461)">
      <path
         d="m 60.068672,114.11001 q 2.56,-2.24 6.4,-6.56 3.84,-4.32 6.56,-7.28 2.72,-2.960002 7.6,-5.200002 4.88,-2.24 10.64,-1.6 1.28,0.48 3.36,1.2 2.08,0.72 3.52,1.28 1.44,0.56 3.359998,1.36 1.92,0.8 3.36,1.6 3.04,1.600002 13.92,9.440002 10.08,7.04 17.44,-1.92 0.48,-0.48 1.12,-1.68 0.64,-1.2 1.28,-2 0.64,-0.8 1.44,-0.96 1.76,-0.48 3.76,-0.8 2,-0.32 4.72,-0.64 2.72,-0.32 3.84,-0.480002 0,1.280002 0,2.880002 0,1.6 0,2.88 0,1.28 -0.24,2.72 -0.24,1.44 -0.88,2.4 -2.56,4.8 -4.64,7.92 -2.08,3.12 -4.16,5.68 -2.08,2.56 -4.32,3.6 -2.24,1.04 -4.64,1.6 -2.4,0.56 -5.68,0 -3.28,-0.56 -6.8,-1.68 -3.52,-1.12 -8.64,-3.04 -4.64,-1.76 -13.119998,-7.52 -8.64,-5.92 -13.28,-5.76 -4.64,0.16 -12.16,6.72 -0.16,0.16 -1.76,1.92 -1.6,1.76 -2.72,2.08 -1.28,0.48 -2.8,0.72 -1.52,0.24 -3.52,0.48 -2,0.24 -2.96,0.4 0,-1.12 -0.4,-3.76 -0.4,-2.64 -0.4,-3.68 0,-1.04 0.8,-2.32 z"
         style="font-size:160px;font-family:'Beth Ellen';-inkscape-font-specification:'Beth Ellen, Normal'"
         id="path829" />
    </g>
  </g>
</svg>
