<?xml version="1.0" encoding="UTF-8" standalone="no"?>
<svg
   id="Ebene_1"
   data-name="Ebene 1"
   viewBox="0 0 582.90999 510.22"
   version="1.1"
   sodipodi:docname="diemitte.svg"
   width="582.90997mm"
   height="510.22mm"
   inkscape:version="1.1 (c68e22c387, 2021-05-23)"
   xmlns:inkscape="http://www.inkscape.org/namespaces/inkscape"
   xmlns:sodipodi="http://sodipodi.sourceforge.net/DTD/sodipodi-0.dtd"
   xmlns="http://www.w3.org/2000/svg"
   xmlns:svg="http://www.w3.org/2000/svg"
   xmlns:rdf="http://www.w3.org/1999/02/22-rdf-syntax-ns#"
   xmlns:cc="http://creativecommons.org/ns#"
   xmlns:dc="http://purl.org/dc/elements/1.1/">
  <sodipodi:namedview
     id="namedview99"
     pagecolor="#ffffff"
     bordercolor="#666666"
     borderopacity="1.0"
     inkscape:pageshadow="2"
     inkscape:pageopacity="0.0"
     inkscape:pagecheckerboard="0"
     showgrid="false"
     fit-margin-top="0"
     fit-margin-left="0"
     fit-margin-right="0"
     fit-margin-bottom="0"
     inkscape:zoom="1.2980061"
     inkscape:cx="105.16129"
     inkscape:cy="336.285"
     inkscape:window-width="2554"
     inkscape:window-height="1375"
     inkscape:window-x="0"
     inkscape:window-y="32"
     inkscape:window-maximized="1"
     inkscape:current-layer="Ebene_1" />
  <defs
     id="defs4">
    <style
       id="style2">.cls-1{fill:#f29206;}.cls-2{fill:#163d6d;}</style>
  </defs>
  <title
     id="title6">diemitte</title>
  <path
     class="cls-1"
     d="M 548.76,97.21 C 533.76,62.03 512.76,32.45 490.94,0 l -62.03,44.54 c 44.63,58 74,130.67 74,210.74 0,80.45 -28,150.28 -73.57,212.45 l 60.06,42.49 c 24.94,-31 44.25,-61.43 59.36,-96.88 21.35,-50.07 34.15,-103.25 34.15,-158.06 0,-54.81 -12.8,-107.98 -34.15,-158.07 z"
     id="path8" />
  <path
     class="cls-2"
     d="m 152.24,230.95 v -116 h 41.56 c 33.05,0 55.26,21.43 55.26,58.08 0,36.65 -22.37,57.92 -55.42,57.92 z m 40.58,-20.94 c 17,0 32.85,-11.78 32.85,-37 0,-25.22 -15.29,-37.14 -32.69,-37.14 h -18.16 v 74.12 z"
     id="path10" />
  <path
     class="cls-2"
     d="m 101.77,378.86 v -76.74 l -31.7,76.74 H 52.2 L 20.5,302.73 v 76.12 H 0 V 263.73 h 25.91 l 35.47,84.74 34.63,-84.74 h 26.9 v 115.13 z"
     id="path12" />
  <path
     class="cls-2"
     d="m 155.24,258.45 a 13.42,13.42 0 1 1 -13.42,13.57 13.4,13.4 0 0 1 13.42,-13.57 z m -10.8,120.41 v -82.49 h 21.76 v 82.49 z"
     id="path14" />
  <path
     class="cls-2"
     d="m 191.55,297.37 v -22.05 h 21.6 v 22.05 h 78.19 v 19.3 h -78.19 v 35.71 c 0,7 3.27,9.32 9.49,9.32 2.61,0 4.27,-1.67 5.36,-2.69 l 9.48,15.23 c -2.3,1.66 -5.83,6.77 -20.41,6.77 -15.7,0 -25.52,-9.33 -25.52,-24.87 v -39.47 h -14.56 v -19.3 h 14.56"
     id="path16" />
  <path
     class="cls-2"
     d="m 378.19,355.79 c -4.09,13.91 -16.85,25.53 -36.65,25.53 -22.08,0 -41.55,-15.87 -41.55,-43 0,-25.69 19,-42.38 39.59,-42.38 24.87,0 39.76,15.87 39.76,41.72 0,3.11 -0.33,6.38 -0.33,6.71 h -57.59 c 0.49,10.64 9.49,18.33 20.29,18.33 10.14,0 15.71,-5.08 18.32,-12.27 z m -20.28,-26.34 c -0.33,-8 -5.57,-15.87 -18,-15.87 -11.29,0 -17.51,8.51 -18,15.87 z"
     id="path18" />
  <path
     class="cls-2"
     d="M 191.55,297.37"
     id="path20" />
  <path
     class="cls-2"
     d="m 248.73,297.37 m 21.59,19.3 v 35.71 c 0,7 3.28,9.32 9.49,9.32 2.62,0 4.28,-1.67 5.36,-2.69 l 9.49,15.23 c -2.31,1.66 -5.83,6.77 -20.41,6.77 -15.71,0 -25.52,-9.33 -25.52,-24.87 v -80.82 h 21.59 z"
     id="path22" />
  <path
     class="cls-2"
     d="M 274.41,110.53 A 13.42,13.42 0 1 1 261,124.11 13.41,13.41 0 0 1 274.41,110.53 Z m -10.8,120.42 v -82.5 h 21.76 v 82.5 z"
     id="path24" />
  <path
     class="cls-2"
     d="m 378.22,206.88 c -4.1,13.91 -16.86,25.53 -36.65,25.53 -22.09,0 -41.56,-15.88 -41.56,-43 0,-25.69 19,-42.38 39.59,-42.38 24.87,0 39.76,15.87 39.76,41.72 0,3.11 -0.33,6.38 -0.33,6.71 h -57.59 c 0.47,10.6 9.47,18.27 20.29,18.27 10.14,0 15.71,-5.07 18.32,-12.27 z m -20.31,-26.34 c -0.33,-8 -5.57,-15.87 -18,-15.87 -11.29,0 -17.51,8.51 -18,15.87 z"
     id="path26" />
  <metadata
     id="metadata181">
    <rdf:RDF>
      <cc:Work
         rdf:about="">
        <dc:title>diemitte</dc:title>
      </cc:Work>
    </rdf:RDF>
  </metadata>
</svg>
