<?xml version="1.0" encoding="UTF-8" standalone="no"?>
<!-- Created with Inkscape (http://www.inkscape.org/) -->

<svg
   width="85.195831mm"
   height="58.994766mm"
   viewBox="0 0 85.195831 58.994766"
   version="1.1"
   id="svg32163"
   inkscape:version="1.1 (c68e22c387, 2021-05-23)"
   sodipodi:docname="ja.svg"
   xmlns:inkscape="http://www.inkscape.org/namespaces/inkscape"
   xmlns:sodipodi="http://sodipodi.sourceforge.net/DTD/sodipodi-0.dtd"
   xmlns="http://www.w3.org/2000/svg"
   xmlns:svg="http://www.w3.org/2000/svg">
  <sodipodi:namedview
     id="namedview32165"
     pagecolor="#ffffff"
     bordercolor="#666666"
     borderopacity="1.0"
     inkscape:pageshadow="2"
     inkscape:pageopacity="0.0"
     inkscape:pagecheckerboard="0"
     inkscape:document-units="mm"
     showgrid="false"
     fit-margin-top="0"
     fit-margin-left="0"
     fit-margin-right="0"
     fit-margin-bottom="0"
     inkscape:zoom="1.5554293"
     inkscape:cx="140.47569"
     inkscape:cy="229.19718"
     inkscape:window-width="1691"
     inkscape:window-height="1151"
     inkscape:window-x="863"
     inkscape:window-y="256"
     inkscape:window-maximized="1"
     inkscape:current-layer="layer2" />
  <defs
     id="defs32160">
    <rect
       x="113.92185"
       y="162.33429"
       width="492.5661"
       height="234.32812"
       id="rect35482" />
  </defs>
  <g
     inkscape:groupmode="layer"
     id="layer2"
     inkscape:label="Layer 2" />
  <g
     inkscape:label="Layer 1"
     inkscape:groupmode="layer"
     id="layer1"
     transform="translate(-53.799151,-73.073405)">
    <text
       xml:space="preserve"
       transform="scale(0.26458333)"
       id="text35480"
       style="font-style:normal;font-weight:normal;font-size:40px;line-height:1.25;font-family:sans-serif;white-space:pre;shape-inside:url(#rect35482);fill:#000000;fill-opacity:1;stroke:none" />
    <path
       style="fill:#000000;stroke-width:0.264583"
       d="m 54.262172,131.78971 c -0.436508,-0.25424 -0.463021,-1.92735 -0.463021,-29.2191 0,-28.350654 0.01058,-28.955086 0.511773,-29.223313 0.346564,-0.185475 13.963677,-0.273892 42.182143,-0.273892 37.529373,0 41.711683,0.04132 42.086143,0.415773 0.37286,0.372861 0.41577,3.37487 0.41577,29.085272 0,25.71039 -0.0429,28.7124 -0.41577,29.08526 -0.37453,0.37453 -4.5543,0.41498 -42.134895,0.40773 -27.845182,-0.005 -41.873102,-0.0977 -42.182143,-0.27773 z M 136.08457,102.57445 V 75.983821 h -39.687502 -39.6875 v 26.590629 26.59062 h 39.6875 39.687502 z m -78.200667,0.0374 0.01629,-25.437434 h 38.487157 38.48716 l -10e-4,25.400004 -0.001,25.39999 -38.502466,0.0374 -38.502468,0.0374 0.01629,-25.43744 z m 76.112047,24.36834 c 0.0154,-0.18078 0.0452,-11.29185 0.0661,-24.69127 l 0.0381,-24.362585 -37.703122,0.02092 -37.703125,0.02092 -0.01327,24.658955 -0.01327,24.65896 37.650243,0.0114 c 29.810894,0.009 37.656084,-0.057 37.678284,-0.31729 z m -50.828049,-5.98484 c 0,-0.1277 0.186444,-0.38692 0.414322,-0.57604 0.946846,-0.78581 1.220888,-1.81027 1.029785,-3.84963 -0.179218,-1.91252 -0.200697,-1.95909 -0.880049,-1.90805 -0.382993,0.0288 -1.023771,-0.16269 -1.423954,-0.42548 l -0.727604,-0.4778 v -8.64488 c 0,-8.094234 -0.03338,-8.710344 -0.524025,-9.672719 l -0.524024,-1.027844 1.076831,-1.024365 c 0.592256,-0.5634 1.556655,-1.341898 2.143109,-1.729994 l 1.066276,-0.705628 0.620398,0.721255 c 0.341219,0.396691 0.887327,1.523246 1.213575,2.503456 0.555334,1.668506 0.605311,2.415164 0.783378,11.704079 0.104611,5.45703 0.193992,10.33859 0.198625,10.84791 0.01378,1.51477 -0.738317,2.68493 -2.338271,3.63802 -1.445739,0.86123 -2.128372,1.06256 -2.128372,0.62771 z m 0,-9.55739 c 0,-0.14552 -0.185621,-0.26459 -0.41249,-0.26459 -0.22687,0 -0.338905,0.11907 -0.248968,0.26459 0.08994,0.14552 0.275558,0.26458 0.412491,0.26458 0.136932,0 0.248967,-0.11906 0.248967,-0.26458 z m 0.64901,-15.123722 c 0.747609,-0.340634 0.889672,-0.949675 0.276413,-1.185005 -0.232503,-0.08922 -0.613236,0.106422 -0.917242,0.471324 -0.86337,1.036321 -0.63224,1.293729 0.640829,0.713681 z M 82.24186,93.975487 c 0.08994,-0.145521 0.03743,-0.264583 -0.116676,-0.264583 -0.15411,0 -0.280199,0.119062 -0.280199,0.264583 0,0.145521 0.0525,0.264584 0.116676,0.264584 0.06417,0 0.190261,-0.119063 0.280199,-0.264584 z m 16.755464,20.892403 c -0.24335,-0.142 -0.710512,-0.70393 -1.038135,-1.24873 -0.327625,-0.5448 -0.626218,-1.03184 -0.663546,-1.08231 -0.03732,-0.0505 -1.137512,0.48326 -2.444864,1.18606 -2.357416,1.26729 -2.381601,1.27365 -2.935403,0.77247 -0.307123,-0.27795 -0.94243,-1.28528 -1.411796,-2.23852 -0.797581,-1.61983 -0.853387,-1.91521 -0.853387,-4.51716 0,-2.41272 0.08267,-2.93898 0.619863,-3.94607 0.961401,-1.80234 2.74814,-3.53177 4.824974,-4.670214 2.034381,-1.115167 2.352698,-1.500789 1.872961,-2.26897 -0.412469,-0.660471 -0.388826,-0.762292 0.177004,-0.762292 0.386545,0 0.460012,-0.158959 0.366845,-0.79375 -0.134552,-0.91675 -0.25577,-0.96936 -0.762016,-0.330729 -0.345274,0.435561 -0.39207,0.427715 -0.789046,-0.132292 -0.494101,-0.697018 -0.886627,-0.772338 -0.886627,-0.17013 0,0.28545 -0.142668,0.370435 -0.434117,0.258596 -0.238766,-0.09162 -1.116293,-0.03238 -1.950062,0.131657 -1.837068,0.361421 -2.642904,0.05922 -2.642904,-0.991122 0,-0.665198 0.03853,-0.68123 1.256771,-0.522937 1.075994,0.13981 1.561237,0.02694 3.373437,-0.784695 3.773162,-1.689892 3.336259,-1.645124 4.894197,-0.501494 0.762377,0.559639 1.729237,1.491154 2.148577,2.070034 l 0.76243,1.052507 v 7.778651 c 0,6.48856 0.0676,7.9094 0.40769,8.56703 0.22423,0.43361 0.3417,0.89516 0.26104,1.02567 -0.17926,0.29004 -3.308195,2.39619 -3.543145,2.38496 -0.09256,-0.004 -0.367393,-0.12423 -0.610741,-0.26622 z m -2.131642,-9.33873 c 0.049,-3.55417 -0.01772,-5.20367 -0.210463,-5.20367 -0.482729,0 -1.584875,1.27435 -2.118098,2.44904 -0.280323,0.61756 -0.512297,1.67584 -0.515493,2.35173 -0.01143,2.4186 1.541926,6.0159 2.465123,5.70877 0.216003,-0.0719 0.328488,-1.64689 0.378931,-5.30587 z m 3.500138,-9.966173 c 0,-0.145521 -0.11906,-0.264583 -0.26459,-0.264583 -0.145516,0 -0.264579,0.119062 -0.264579,0.264583 0,0.145521 0.119063,0.264584 0.264579,0.264584 0.14553,0 0.26459,-0.119063 0.26459,-0.264584 z m -1.322919,-1.058333 c 0,-0.145521 -0.119062,-0.264583 -0.264583,-0.264583 -0.145521,0 -0.264583,0.119062 -0.264583,0.264583 0,0.145521 0.119062,0.264583 0.264583,0.264583 0.145521,0 0.264583,-0.119062 0.264583,-0.264583 z m 8.876279,19.406286 c -0.51633,-0.53164 -0.93878,-1.14549 -0.93878,-1.36409 0,-0.82421 2.72171,-3.81508 3.79803,-4.17364 0.72292,-0.24082 2.55197,1.61499 2.55197,2.58931 0,0.50333 -0.136,0.74005 -0.42518,0.74005 -0.2676,0 -0.36922,0.14583 -0.27419,0.39347 0.17316,0.45126 -1.47468,2.18017 -2.42671,2.5461 -0.99526,0.38254 -1.29738,0.28587 -2.28514,-0.7312 z m 2.89768,-1.41462 c 0,-0.82755 -0.81073,-1.04471 -1.05281,-0.282 -0.21791,0.68658 0.0488,1.12957 0.61446,1.02063 0.26713,-0.0514 0.43835,-0.33996 0.43835,-0.73863 z m -5.3159,-3.27503 c -0.077,-0.20054 0.067,-0.99719 0.31988,-1.77034 0.49698,-1.51944 0.46682,-2.12853 -0.55596,-11.226504 -0.58591,-5.211899 -0.21145,-6.645204 2.67536,-10.240182 1.54511,-1.92416 2.93704,-3.121276 3.6292,-3.121276 0.56383,0 0.55166,0.194435 -0.0911,1.455208 -0.65041,1.275745 -0.66926,2.68756 -0.13954,10.451041 0.32647,4.78459 0.33211,5.929263 0.0355,7.203363 -0.42975,1.84608 -1.67649,3.967 -3.55619,6.04966 -1.40603,1.55784 -2.05132,1.89175 -2.31714,1.19903 z M 81.691174,89.724986 c -0.4484,-0.13168 -1.035439,-0.482701 -1.304533,-0.780048 -0.48101,-0.531507 -0.46967,-0.560594 0.67192,-1.72379 1.297109,-1.321658 1.610844,-1.405564 2.535618,-0.678135 0.353121,0.277763 1.235102,0.586592 1.959962,0.686286 0.724861,0.09969 1.317927,0.235331 1.317927,0.301416 0,0.208658 -1.427353,1.414987 -2.116667,1.788902 -0.965073,0.5235 -2.134957,0.678265 -3.064227,0.405369 z"
       id="path67818" />
  </g>
</svg>
