<?xml version="1.0" encoding="UTF-8" standalone="no"?>
<!-- Created with Inkscape (http://www.inkscape.org/) -->

<svg
   width="85.986076mm"
   height="58.689644mm"
   viewBox="0 0 85.986076 58.689644"
   version="1.1"
   id="svg68834"
   inkscape:version="1.1 (c68e22c387, 2021-05-23)"
   sodipodi:docname="nein2.svg"
   xmlns:inkscape="http://www.inkscape.org/namespaces/inkscape"
   xmlns:sodipodi="http://sodipodi.sourceforge.net/DTD/sodipodi-0.dtd"
   xmlns="http://www.w3.org/2000/svg"
   xmlns:svg="http://www.w3.org/2000/svg">
  <sodipodi:namedview
     id="namedview68836"
     pagecolor="#ffffff"
     bordercolor="#666666"
     borderopacity="1.0"
     inkscape:pageshadow="2"
     inkscape:pageopacity="0.0"
     inkscape:pagecheckerboard="0"
     inkscape:document-units="mm"
     showgrid="false"
     fit-margin-top="0"
     fit-margin-left="0"
     fit-margin-right="0"
     fit-margin-bottom="0"
     inkscape:zoom="1.5554293"
     inkscape:cx="168.44224"
     inkscape:cy="129.54623"
     inkscape:window-width="1920"
     inkscape:window-height="1151"
     inkscape:window-x="634"
     inkscape:window-y="256"
     inkscape:window-maximized="1"
     inkscape:current-layer="layer3" />
  <defs
     id="defs68831" />
  <g
     inkscape:groupmode="layer"
     id="layer3"
     inkscape:label="Layer 2"
     transform="translate(-67.192293,-90.670525)" />
  <g
     inkscape:label="Layer 1"
     inkscape:groupmode="layer"
     id="layer1"
     transform="translate(-67.192293,-90.670525)">
    <path
       style="fill:#000000;stroke-width:0.264583"
       d="m 67.439291,148.6617 c -0.166193,-0.43712 -0.254462,-5.5852 -0.235901,-13.75833 0.02615,-11.51364 0.07742,-13.05986 0.433083,-13.05986 0.295497,0 0.360099,-0.17262 0.241478,-0.64525 -0.08907,-0.35488 -0.04245,-0.7191 0.103609,-0.80936 0.475173,-0.29368 0.279812,-0.7275 -0.263612,-0.5854 -0.524303,0.13711 -0.52913,0.009 -0.525116,-13.92591 0.0024,-8.208182 0.106515,-14.226312 0.250132,-14.453402 0.208897,-0.330312 0.388347,-0.337662 1.18761,-0.04864 0.517841,0.187254 1.194053,0.260314 1.502692,0.162356 0.346081,-0.109842 0.642983,-0.04572 0.774637,0.167302 0.14022,0.226882 0.877918,0.358587 2.14978,0.383813 1.064968,0.02112 2.245857,0.166344 2.624198,0.322716 1.122053,0.463755 4.896111,0.710806 5.127953,0.335677 0.383051,-0.619788 -0.359166,-0.834683 -4.624287,-1.338873 -2.370921,-0.280272 -4.374062,-0.572882 -4.451425,-0.650245 -0.07736,-0.07736 18.046955,-0.10976 40.276268,-0.07199 39.66171,0.06738 40.42393,0.07826 40.79245,0.582256 0.29027,0.396993 0.37552,1.559501 0.37552,5.120638 v 4.607042 l -0.93089,-0.81733 c -0.51199,-0.449535 -1.2222,-0.890449 -1.57824,-0.979809 -0.62375,-0.156552 -0.65009,-0.255441 -0.72275,-2.713537 l -0.0754,-2.551065 -39.42291,-0.01537 c -21.682609,-0.0085 -39.571749,0.03303 -39.75365,0.09219 -0.255811,0.08319 -0.330729,2.103947 -0.330729,8.920741 0,6.80948 -0.07519,8.84076 -0.330729,8.93445 -0.264584,0.097 -0.264584,0.19139 0,0.47184 0.434865,0.46096 0.434865,3.46811 0,3.92907 -0.264584,0.28045 -0.264584,0.37482 0,0.47184 0.207832,0.0762 0.330729,0.6433 0.330729,1.52612 0,1.09318 -0.102721,1.44468 -0.463021,1.58435 -0.432627,0.16771 -0.433749,0.20106 -0.01709,0.508 0.40693,0.29977 0.448017,1.44869 0.469817,13.13769 0.01314,7.04505 0.115012,12.90031 0.226384,13.01168 0.232534,0.23254 78.800689,0.29635 79.176139,0.0643 0.13604,-0.0841 0.24735,-1.19131 0.24735,-2.4605 v -2.30763 l 0.82522,-0.31149 c 0.74457,-0.28104 0.80382,-0.38368 0.60627,-1.05019 -0.12042,-0.40629 -0.20601,-1.18519 -0.1902,-1.7309 0.0288,-0.99383 -0.3304,-1.34072 -0.61644,-0.59531 -0.0838,0.21828 -0.25862,0.39688 -0.38857,0.39688 -0.13634,0 -0.23628,-7.6536 -0.23628,-18.09565 0,-16.46759 0.0387,-18.11052 0.43042,-18.26083 0.23672,-0.0908 0.58903,-0.0335 0.78291,0.12739 0.20412,0.16941 0.69118,0.21817 1.15709,0.11584 l 0.80458,-0.17672 v 23.05717 c 0,15.38791 -0.0911,23.22739 -0.27389,23.56894 -0.25665,0.47956 -0.60412,0.51177 -5.52028,0.51177 h -5.24639 l 0.0302,-0.99218 c 0.027,-0.8875 -0.0389,-0.99219 -0.62491,-0.99219 -0.8242,0 -1.43004,1.32683 -0.79053,1.73132 0.25763,0.16295 -0.28145,0.24631 -1.61032,0.249 -1.09868,0.002 -2.12704,-0.12538 -2.28524,-0.28358 -0.20713,-0.20713 -0.3374,-0.20713 -0.46541,0 -0.12653,0.20473 -10.05103,0.28763 -34.43224,0.28763 H 67.70485 Z m 83.557589,-0.29371 c 0.0683,-0.20735 -0.14608,-0.33073 -0.57459,-0.33073 -0.44464,0 -0.68351,0.14513 -0.68351,0.41527 0,0.49758 1.09052,0.4243 1.2581,-0.0845 z m -5.75602,-0.33073 c 0,-0.14552 -0.17859,-0.26459 -0.39687,-0.26459 -0.21828,0 -0.39688,0.11907 -0.39688,0.26459 0,0.14552 0.1786,0.26458 0.39688,0.26458 0.21828,0 0.39687,-0.11906 0.39687,-0.26458 z m 7.14375,-2.52185 c 0,-0.42245 -0.70316,-0.83194 -0.97014,-0.56496 -0.0845,0.0845 -0.0831,0.3373 0.003,0.56185 0.20291,0.52878 0.96703,0.53123 0.96703,0.003 z m -1.0043,-10.70843 c 0.0592,-0.89988 -0.0154,-1.18952 -0.30626,-1.18952 -0.39669,0 -0.67231,1.73349 -0.39616,2.49164 0.23847,0.65474 0.62023,-0.053 0.70242,-1.30212 z m -0.31861,-4.49681 c 0,-0.14552 -0.1786,-0.26458 -0.39688,-0.26458 -0.21828,0 -0.39687,0.11906 -0.39687,0.26458 0,0.14552 0.17859,0.26459 0.39687,0.26459 0.21828,0 0.39688,-0.11907 0.39688,-0.26459 z M 69.040864,111.92163 c 0,-0.21828 -0.119062,-0.39688 -0.264583,-0.39688 -0.145521,0 -0.264583,0.1786 -0.264583,0.39688 0,0.21828 0.119062,0.39687 0.264583,0.39687 0.145521,0 0.264583,-0.17859 0.264583,-0.39687 z m 14.155562,-18.6537 c 0.09013,-0.145836 0.603174,-0.210127 1.140094,-0.142869 0.53692,0.06726 1.482234,0.187986 2.100698,0.268284 0.840257,0.109093 1.124479,0.05561 1.124479,-0.211594 0,-0.502667 -4.929413,-1.117433 -5.455966,-0.680434 -0.493037,0.409185 -0.458994,0.703788 0.09815,0.849385 0.760412,0.198717 0.821732,0.193603 0.992541,-0.08277 z M 71.157531,120.3883 V 94.59142 h 39.158339 39.15833 v 25.79688 25.79687 H 110.31587 71.157531 Z m 73.221339,25.02868 c -0.0598,-0.21135 1.27591,-1.61306 1.53708,-1.61306 0.0653,0 0.11866,0.1786 0.11866,0.39688 0,0.21828 -0.10517,0.39687 -0.23372,0.39687 -0.12855,0 -0.296,0.23813 -0.37211,0.52917 -0.11288,0.43169 -0.009,0.52843 0.56446,0.52518 0.38656,-0.002 1.17362,-0.16783 1.74903,-0.3681 l 1.04619,-0.36412 0.0122,-21.67441 0.0121,-21.67441 -2.63265,-0.31483 c -1.44796,-0.17315 -2.74193,-0.4241 -2.87549,-0.55766 -0.13355,-0.13356 -0.61574,-0.1842 -1.07151,-0.11254 -1.02926,0.16183 -9.17245,-0.871004 -9.50729,-1.205851 -0.4289,-0.428893 0.0318,-0.745722 1.29082,-0.887626 0.78278,-0.08823 1.47575,-0.0049 1.9243,0.231324 0.46171,0.243179 1.08565,0.313047 1.82787,0.20468 0.75907,-0.110826 1.26445,-0.05036 1.54834,0.185246 0.27869,0.231291 1.10435,0.336712 2.43743,0.311212 1.10879,-0.02121 2.16688,0.08667 2.35132,0.239742 0.18443,0.153067 1.17607,0.311064 2.20363,0.351103 1.66794,0.065 1.90485,0.0121 2.20918,-0.492968 0.28472,-0.472551 0.36067,-2.097377 0.1903,-4.071496 -0.0226,-0.261965 -4.41569,-0.321926 -21.12906,-0.288386 -11.60529,0.02329 -20.71357,0.09036 -20.24062,0.149055 0.65972,0.08187 0.85989,0.234573 0.85989,0.655969 0,0.505544 -0.10814,0.53645 -1.35879,0.388328 -1.59596,-0.189017 -1.85142,-0.362121 -1.21797,-0.825313 0.3809,-0.278521 -2.66128,-0.348222 -16.801456,-0.384944 l -17.266588,-0.04484 0.04325,13.040435 c 0.02379,7.17223 0.05355,13.18123 0.06615,13.35333 0.01259,0.17209 0.261023,0.38847 0.552065,0.48085 0.688085,0.21839 0.67817,1.02715 -0.01826,1.48956 -0.374703,0.24879 -0.551124,0.65551 -0.559141,1.28904 -0.01832,1.44748 0.02155,1.58702 0.453414,1.58702 0.222848,0 0.465833,0.15807 0.539966,0.35125 0.191895,0.50007 -0.338608,1.76542 -0.740159,1.76541 -0.267031,0 -0.328377,1.72206 -0.294542,8.26823 0.0235,4.54753 0.05327,8.41822 0.06614,8.60152 0.01871,0.26631 7.333978,0.33151 36.401511,0.32442 20.03083,-0.005 36.34933,-0.11061 36.31407,-0.23527 z m -4.54408,-0.79037 c -0.0801,-0.1296 0.15692,-0.43388 0.52671,-0.67617 0.4809,-0.3151 0.62585,-0.58703 0.50907,-0.95499 -0.19725,-0.62148 0.0838,-0.65454 0.87184,-0.10257 0.92606,0.64864 0.75381,1.3693 -0.40415,1.69088 -1.21256,0.33675 -1.31994,0.33981 -1.50347,0.0429 z m 4.1036,-0.64349 c -0.47744,-0.47745 -0.32081,-0.97244 0.39366,-1.24408 1.35032,-0.51339 1.56903,-0.14855 0.53238,0.88809 -0.45799,0.458 -0.72239,0.55964 -0.92604,0.35599 z m 2.773,-0.64895 c -0.31005,-0.31005 -0.12274,-0.61114 0.53605,-0.8616 0.8223,-0.31264 1.31824,-0.094 0.90802,0.40027 -0.32734,0.39443 -1.22439,0.68101 -1.44407,0.46133 z m -11.24052,-0.96185 c -0.17038,-0.20529 -0.37913,-0.8006 -0.46388,-1.32291 -0.19291,-1.18872 0.34913,-1.30161 0.74852,-0.1559 0.31407,0.90093 0.63253,0.98578 1.33021,0.3544 0.61329,-0.55502 0.71664,-0.43585 0.55313,0.63778 -0.11693,0.76776 -0.22349,0.8599 -0.99458,0.8599 -0.47499,0 -1.00301,-0.16797 -1.1734,-0.37327 z m 3.94916,-1.21423 c 0,-0.14552 0.11906,-0.26458 0.26458,-0.26458 0.14553,0 0.26459,0.11906 0.26459,0.26458 0,0.14552 -0.11906,0.26458 -0.26459,0.26458 -0.14552,0 -0.26458,-0.11906 -0.26458,-0.26458 z m 7.67292,-3.32291 c 0,-0.22687 0.121,-0.3377 0.2689,-0.2463 0.14789,0.0914 0.2004,0.27703 0.11667,0.41249 -0.22681,0.36699 -0.38557,0.29856 -0.38557,-0.16619 z m -7.40834,-0.38126 c 0,-0.14552 0.11907,-0.26458 0.26459,-0.26458 0.14552,0 0.26458,0.11906 0.26458,0.26458 0,0.14552 -0.11906,0.26459 -0.26458,0.26459 -0.14552,0 -0.26459,-0.11907 -0.26459,-0.26459 z m 4.49792,-1.5875 c 0,-0.14552 0.11906,-0.26458 0.26458,-0.26458 0.14553,0 0.26459,0.11906 0.26459,0.26458 0,0.14552 -0.11906,0.26459 -0.26459,0.26459 -0.14552,0 -0.26458,-0.11907 -0.26458,-0.26459 z m -52.9294,-2.97656 c -0.309383,-0.32742 -0.820036,-1.07156 -1.134786,-1.65365 -0.545828,-1.00943 -0.575176,-1.42511 -0.635115,-8.99583 -0.03456,-4.36563 -0.126889,-8.20842 -0.205167,-8.53955 -0.07828,-0.33112 -0.387108,-0.84682 -0.686288,-1.146 -0.51805,-0.51805 -0.568146,-0.52208 -1.051603,-0.0845 -0.48343,0.4375 -0.507641,0.93696 -0.507641,10.47257 v 10.01316 h -3.307291 -3.307292 v -10.22138 c 0,-9.86515 -0.01903,-10.25217 -0.546087,-11.10496 l -0.546088,-0.88359 1.497162,-0.95772 c 2.179167,-1.394 3.585022,-1.97501 4.105218,-1.69661 0.23993,0.12841 0.841334,0.77109 1.336453,1.42818 0.495119,0.65709 1.068526,1.1984 1.274236,1.2029 0.205711,0.004 1.611903,-0.647 3.124872,-1.44777 3.146834,-1.66553 3.311784,-1.65368 4.314804,0.30992 0.64512,1.26294 0.65456,1.38173 0.78526,9.87728 0.12057,7.83659 0.17777,8.6871 0.64527,9.59315 l 0.51299,0.99419 -0.90986,0.94929 c -1.22721,1.28042 -3.00196,2.48628 -3.6592,2.48628 -0.295533,0 -0.790464,-0.26789 -1.099847,-0.59531 z m 43.25554,-0.26458 c -1.3979,-1.65783 -1.43861,-1.9532 -1.43905,-10.44255 -2.6e-4,-6.97224 -0.0537,-7.98643 -0.46302,-8.80512 -0.25444,-0.50889 -0.69287,-0.96832 -0.97429,-1.02096 -1.15073,-0.2152 -1.20811,0.29435 -1.20811,10.72805 v 9.87131 h -3.175 -3.175 v -9.95904 c 0,-9.7556 -0.012,-9.98305 -0.58682,-11.13403 l -0.58681,-1.17498 0.65296,-0.49327 c 0.35913,-0.27129 1.53928,-0.93749 2.62255,-1.48044 l 1.9696,-0.98719 1.38064,1.54368 1.38066,1.54368 0.87591,-0.36282 c 0.48175,-0.19955 1.81614,-0.86972 2.9653,-1.48926 2.47539,-1.33456 2.80494,-1.26476 3.76514,0.79752 0.62843,1.34971 0.63698,1.47498 0.63953,9.36174 0.002,7.41579 0.0419,8.09888 0.54677,9.44819 0.67121,1.79397 0.55358,2.06186 -1.62422,3.69894 -1.93081,1.45142 -2.58813,1.51713 -3.56674,0.35655 z m -19.89333,0.42431 c -0.25625,-0.10668 -0.33072,-2.37253 -0.33072,-10.06281 0,-9.66808 -0.0144,-9.9454 -0.55731,-10.7078 -0.54395,-0.7639 -0.54554,-0.7957 -0.0661,-1.32659 1.03212,-1.14298 3.76585,-3.1318 4.30482,-3.1318 0.38235,0 0.81429,0.39526 1.34303,1.22898 1.57927,2.49027 1.60327,2.70808 1.52724,13.86402 l -0.0693,10.17471 -2.91042,0.0495 c -1.60073,0.0272 -3.05924,-0.0125 -3.24115,-0.0882 z m -10.27905,-0.84339 c -1.45813,-1.05953 -3.98417,-3.85653 -4.634913,-5.1321 -2.94534,-5.77333 -2.00225,-10.54847 3.176543,-16.0838 1.29067,-1.37954 2.703,-2.7143 3.1385,-2.96614 l 0.79183,-0.45788 1.84991,2.44225 c 2.7569,3.63967 3.3196,4.62337 3.11379,5.44337 -0.10038,0.39997 -1.68088,2.19251 -3.72563,4.22548 -1.95321,1.94194 -3.55129,3.58604 -3.55129,3.65355 0,0.29428 2.63983,2.9061 4.1593,4.11518 0.91385,0.72717 1.66154,1.47869 1.66154,1.67004 0,0.55813 -3.97359,3.83986 -4.64939,3.83986 -0.16406,0 -0.76265,-0.33742 -1.33019,-0.74981 z m 0.99029,-12.97073 c 0.70682,-0.70682 1.28512,-1.47173 1.28512,-1.6998 0,-0.48021 -2.64825,-4.4913 -3.04271,-4.60855 -0.42512,-0.12636 -1.19062,2.92443 -1.19062,4.74501 0,1.76669 0.47222,2.84846 1.24342,2.84846 0.23082,0 0.99798,-0.5783 1.70479,-1.28512 z m -30.729466,-4.27113 c 0,-0.14553 0.119063,-0.26459 0.264583,-0.26459 0.145521,0 0.264584,0.11906 0.264584,0.26459 0,0.14552 -0.119063,0.26458 -0.264584,0.26458 -0.14552,0 -0.264583,-0.11906 -0.264583,-0.26458 z m 57.582906,-7.54215 c -0.0922,-0.24015 8.3e-4,-0.39535 0.23686,-0.39535 0.42793,0 0.52528,0.41344 0.15171,0.64432 -0.13027,0.0805 -0.30513,-0.0315 -0.38857,-0.24897 z m -17.8671,-1.27018 c -0.49376,-0.17369 -1.06403,-0.56894 -1.26728,-0.87833 -0.33069,-0.5034 -0.30225,-0.64245 0.27062,-1.32291 0.35209,-0.41822 1.1157,-1.02746 1.69693,-1.35388 l 1.05678,-0.59349 0.72326,0.56891 c 0.43044,0.33859 1.24957,0.61949 2.02326,0.69383 0.715,0.0687 1.36674,0.2329 1.44831,0.36489 0.26199,0.42392 -1.84817,2.26746 -2.94344,2.57153 -1.30225,0.36153 -1.8638,0.3521 -3.00844,-0.0506 z m 13.86232,-7.079402 c -0.87312,-0.117815 -2.59953,-0.337416 -3.83646,-0.488002 -8.39271,-1.021745 -13.18103,-1.634876 -13.70936,-1.755447 -0.45077,-0.10287 -0.59049,-0.294493 -0.52917,-0.725737 0.0638,-0.448839 0.28859,-0.605664 0.9605,-0.670159 0.48245,-0.04631 1.02045,0.03471 1.19556,0.180033 0.50375,0.418073 3.82028,0.908186 5.02977,0.743293 1.15945,-0.158071 4.7,0.232151 5.59749,0.61693 1.53701,0.658948 2.53829,0.837157 2.92066,0.519819 0.30309,-0.251542 0.4707,-0.251109 0.77569,0.002 0.26181,0.217284 0.81494,0.264309 1.69126,0.143785 0.85691,-0.117856 1.36481,-0.0778 1.48529,0.11715 0.101,0.163424 0.42518,0.219416 0.72303,0.124882 0.58278,-0.184967 0.99215,0.228811 0.99898,1.009738 0.005,0.518858 -0.57031,0.55048 -3.30324,0.18171 z m 21.82812,41.291732 c 0,-0.49389 0.0706,-0.56444 0.3175,-0.3175 0.24695,0.24694 0.24695,0.38806 0,0.635 -0.24694,0.24694 -0.3175,0.17639 -0.3175,-0.3175 z"
       id="path69294" />
  </g>
</svg>
