<?xml version="1.0" encoding="UTF-8" standalone="no"?>
<!-- Created with Inkscape (http://www.inkscape.org/) -->

<svg
   width="85.986061mm"
   height="58.689655mm"
   viewBox="0 0 85.986061 58.689655"
   version="1.1"
   id="svg67866"
   inkscape:version="1.1 (c68e22c387, 2021-05-23)"
   sodipodi:docname="nein.svg"
   xmlns:inkscape="http://www.inkscape.org/namespaces/inkscape"
   xmlns:sodipodi="http://sodipodi.sourceforge.net/DTD/sodipodi-0.dtd"
   xmlns="http://www.w3.org/2000/svg"
   xmlns:svg="http://www.w3.org/2000/svg">
  <sodipodi:namedview
     id="namedview67868"
     pagecolor="#ffffff"
     bordercolor="#666666"
     borderopacity="1.0"
     inkscape:pageshadow="2"
     inkscape:pageopacity="0.0"
     inkscape:pagecheckerboard="0"
     inkscape:document-units="mm"
     showgrid="false"
     fit-margin-top="0"
     fit-margin-left="0"
     fit-margin-right="0"
     fit-margin-bottom="0"
     inkscape:zoom="1.5554293"
     inkscape:cx="173.90697"
     inkscape:cy="226.62554"
     inkscape:window-width="1691"
     inkscape:window-height="1151"
     inkscape:window-x="863"
     inkscape:window-y="256"
     inkscape:window-maximized="1"
     inkscape:current-layer="layer1" />
  <defs
     id="defs67863" />
  <g
     inkscape:label="Layer 1"
     inkscape:groupmode="layer"
     id="layer1"
     transform="translate(-14.919396,-26.000412)">
    <path
       style="fill:#000000;stroke-width:0.264583"
       d="M 15.166394,83.991592 C 15.000201,83.554471 14.911932,78.406394 14.930493,70.233259 14.95664,58.719622 15.007915,57.1734 15.363576,57.1734 c 0.295497,0 0.360099,-0.17262 0.241478,-0.645242 -0.08907,-0.354886 -0.04245,-0.719101 0.103609,-0.809366 0.475173,-0.293674 0.279812,-0.727504 -0.263612,-0.585396 -0.524303,0.137107 -0.52913,0.0091 -0.525116,-13.925912 0.0024,-8.208179 0.106515,-14.226309 0.250132,-14.453399 0.208897,-0.330312 0.388347,-0.337662 1.18761,-0.04865 0.517841,0.187254 1.194053,0.260314 1.502692,0.162356 0.346081,-0.109842 0.642983,-0.04572 0.774637,0.167302 0.14022,0.226882 0.877918,0.358587 2.14978,0.383813 1.064968,0.02112 2.245857,0.166344 2.624198,0.322716 1.122053,0.463755 4.896111,0.710806 5.127953,0.335677 0.383051,-0.619788 -0.359166,-0.834683 -4.624287,-1.338873 -2.370921,-0.280272 -4.374062,-0.572882 -4.451425,-0.650245 -0.07736,-0.07736 18.046955,-0.10976 40.276262,-0.07199 39.661715,0.06738 40.423933,0.07826 40.792453,0.582256 0.29027,0.396993 0.37552,1.559501 0.37552,5.120638 v 4.607047 L 99.97457,35.508798 C 99.462578,35.059264 98.752373,34.61835 98.396333,34.52899 97.772581,34.372438 97.746242,34.273549 97.673582,31.815453 l -0.07541,-2.551065 -39.422916,-0.01537 c -21.682603,-0.0085 -39.571743,0.03303 -39.753644,0.09219 -0.255811,0.08319 -0.330729,2.103947 -0.330729,8.920742 0,6.809484 -0.07519,8.840757 -0.330729,8.934453 -0.264584,0.09701 -0.264584,0.191382 0,0.471841 0.434865,0.460957 0.434865,3.468105 0,3.929062 -0.264584,0.280458 -0.264584,0.374827 0,0.471839 0.207832,0.07621 0.330729,0.643303 0.330729,1.52612 0,1.093187 -0.102721,1.444675 -0.463021,1.584348 -0.432627,0.167715 -0.433749,0.20106 -0.01709,0.507998 0.40693,0.299775 0.448017,1.448694 0.469817,13.137692 0.01314,7.045052 0.115012,12.90031 0.226384,13.011684 0.232534,0.232532 78.800691,0.296347 79.176137,0.06431 0.136045,-0.08408 0.247355,-1.191308 0.247355,-2.460503 v -2.307627 l 0.82522,-0.311486 c 0.744564,-0.281043 0.80382,-0.383688 0.606266,-1.050195 -0.120425,-0.406289 -0.206012,-1.185193 -0.190195,-1.730896 0.02881,-0.993833 -0.330402,-1.340729 -0.616443,-0.595313 -0.08376,0.218282 -0.258619,0.396875 -0.388572,0.396875 -0.136342,0 -0.236276,-7.653594 -0.236276,-18.09565 0,-16.46758 0.03872,-18.110511 0.430411,-18.260815 0.236726,-0.09084 0.589037,-0.03352 0.782913,0.127387 0.204118,0.169404 0.691187,0.218164 1.157091,0.115834 l 0.80458,-0.176717 v 23.057167 c 0,15.387913 -0.0911,23.22739 -0.27389,23.568938 -0.25665,0.47956 -0.60412,0.511773 -5.520281,0.511773 h -5.246391 l 0.03018,-0.992188 c 0.02699,-0.887497 -0.03894,-0.992187 -0.624909,-0.992187 -0.824201,0 -1.430041,1.326832 -0.79053,1.731319 0.257633,0.162949 -0.281453,0.246309 -1.61032,0.249005 -1.098682,0.0021 -2.127041,-0.125386 -2.285241,-0.283586 -0.207129,-0.207129 -0.337396,-0.207129 -0.465407,0 -0.126529,0.20473 -10.051028,0.287637 -34.432244,0.287637 H 15.431953 Z m 83.557584,-0.293714 c 0.06828,-0.20734 -0.146082,-0.330729 -0.574591,-0.330729 -0.444632,0 -0.683506,0.145132 -0.683506,0.415277 0,0.497581 1.09052,0.424294 1.258097,-0.08455 z m -5.756013,-0.330729 c 0,-0.145521 -0.178594,-0.264583 -0.396875,-0.264583 -0.218282,0 -0.396875,0.119062 -0.396875,0.264583 0,0.145521 0.178593,0.264583 0.396875,0.264583 0.218281,0 0.396875,-0.119062 0.396875,-0.264583 z m 7.143745,-2.521844 c 0,-0.422452 -0.703158,-0.831937 -0.970135,-0.564962 -0.08446,0.08446 -0.08306,0.337296 0.0031,0.561853 0.202909,0.528775 0.967035,0.531228 0.967035,0.0031 z M 99.107412,70.136869 c 0.05921,-0.899875 -0.01537,-1.189511 -0.306263,-1.189511 -0.396685,0 -0.672304,1.733489 -0.396164,2.491639 0.238475,0.654735 0.620239,-0.05297 0.702427,-1.302128 z m -0.318614,-4.496803 c 0,-0.145521 -0.178594,-0.264583 -0.396875,-0.264583 -0.218281,0 -0.396875,0.119062 -0.396875,0.264583 0,0.145521 0.178594,0.264583 0.396875,0.264583 0.218281,0 0.396875,-0.119062 0.396875,-0.264583 z M 16.767967,47.251525 c 0,-0.218281 -0.119062,-0.396875 -0.264583,-0.396875 -0.145521,0 -0.264583,0.178594 -0.264583,0.396875 0,0.218281 0.119062,0.396875 0.264583,0.396875 0.145521,0 0.264583,-0.178594 0.264583,-0.396875 z M 30.923529,28.597827 c 0.09013,-0.145836 0.603174,-0.210127 1.140094,-0.142869 0.53692,0.06726 1.482234,0.187986 2.100698,0.268284 0.840257,0.109093 1.124479,0.05561 1.124479,-0.211594 0,-0.502667 -4.929413,-1.117433 -5.455966,-0.680434 -0.493037,0.409185 -0.458994,0.703788 0.09815,0.849385 0.760412,0.198717 0.821732,0.193603 0.992541,-0.08277 z M 19.4138,72.463088 c 0,-8.057745 0.0222,-8.432718 0.529167,-8.939689 0.291042,-0.291041 0.529167,-0.752713 0.529167,-1.025937 0,-0.55208 -0.612473,-1.183812 -0.88424,-0.912045 -0.09575,0.09575 -0.174094,-0.436872 -0.174094,-1.183611 0,-1.086917 0.105541,-1.414188 0.529167,-1.640906 0.291042,-0.155761 0.529167,-0.528283 0.529167,-0.827829 0,-0.322114 -0.216199,-0.601165 -0.529167,-0.683008 C 19.422633,57.113993 19.4138,56.889166 19.4138,43.781083 V 30.450484 h 12.450881 c 7.697345,0 13.162825,0.110461 14.315668,0.289331 1.349528,0.209387 1.944732,0.209387 2.154118,0 0.168444,-0.168444 1.330955,-0.289331 2.782353,-0.289331 2.239597,0 2.457839,0.04239 2.146911,0.41704 -0.477335,0.575153 0.07079,0.896538 1.538089,0.901825 0.936612,0.0034 1.124479,-0.08142 1.124479,-0.507541 0,-0.354992 -0.222723,-0.545332 -0.727604,-0.621816 -0.400182,-0.06062 0.165365,-0.126239 1.256771,-0.145814 1.173599,-0.02105 1.839788,0.05606 1.630497,0.188716 -0.194633,0.123369 -0.313695,0.5085 -0.264583,0.855845 0.08857,0.626436 0.168362,0.641564 9.878877,1.87306 5.384271,0.682838 10.22577,1.248385 10.758889,1.256771 0.930678,0.01464 0.961502,-0.01375 0.773454,-0.712357 -0.144296,-0.536079 -0.366368,-0.731225 -0.84365,-0.741357 -0.356291,-0.0076 -0.793991,-0.104103 -0.972669,-0.214532 -0.178679,-0.11043 -0.861383,-0.120326 -1.517121,-0.02199 -0.777073,0.11653 -1.323729,0.06967 -1.56981,-0.134557 -0.271664,-0.22546 -0.523399,-0.235295 -0.897533,-0.03507 -0.514741,0.275482 -1.896634,-0.01251 -2.573893,-0.536418 -0.414388,-0.320555 -4.953489,-0.787956 -5.870683,-0.604517 -0.880549,0.17611 -4.51235,-0.318262 -4.945322,-0.673172 -0.15354,-0.125857 -0.576818,-0.283557 -0.94062,-0.350443 -0.363802,-0.06689 7.881276,-0.137827 18.322395,-0.157644 15.018189,-0.0285 18.989016,0.03306 19.008571,0.294698 0.185349,2.480162 0.06869,3.809197 -0.37315,4.251037 -0.368747,0.368746 -0.565107,0.410693 -0.842983,0.180077 -0.270431,-0.224437 -0.504616,-0.22446 -0.923856,-9e-5 -0.62283,0.333328 -1.700192,0.16865 -2.938667,-0.449183 -0.590833,-0.294747 -0.972507,-0.335122 -1.386398,-0.14666 -0.695108,0.316511 -2.12313,0.158029 -3.283809,-0.364437 -0.567942,-0.255651 -1.008108,-0.304844 -1.29435,-0.144655 -0.447529,0.25045 -1.340847,0.131962 -1.824736,-0.24203 -0.151537,-0.117123 -0.955209,-0.1428 -1.785937,-0.05706 -1.240288,0.128009 -1.510414,0.243907 -1.510414,0.648039 0,0.270683 0.0893,0.496936 0.198438,0.502783 0.10914,0.0058 2.250127,0.279669 4.757747,0.60849 2.797014,0.36677 4.719905,0.507985 4.974791,0.365343 0.258935,-0.144908 0.55494,-0.116773 0.78562,0.07467 0.203575,0.168954 1.507029,0.44236 2.896563,0.607569 2.252617,0.267826 2.528768,0.358667 2.548064,0.838191 0.082,2.037943 0.03656,42.763772 -0.04778,42.828508 -0.337312,0.258892 -2.787986,0.631595 -2.972144,0.452009 -0.121089,-0.118081 -0.06606,-0.461442 0.122275,-0.763022 0.188341,-0.30158 0.262662,-0.628102 0.165163,-0.725601 -0.195836,-0.195839 -1.811086,1.223214 -1.663729,1.461643 0.05066,0.08196 -16.267937,0.153014 -36.263536,0.157896 l -36.355636,0.0089 z m 69.810517,7.438594 c 1.06462,-0.371129 1.150459,-1.332138 0.159324,-1.783729 -0.912913,-0.415951 -0.997662,-0.392522 -0.834668,0.230762 0.09786,0.374227 -0.05371,0.665157 -0.498308,0.956471 -1.233154,0.807993 -0.50079,1.180211 1.173652,0.596496 z m 4.005561,-1.922111 c -0.334115,-0.353626 -1.705694,0.213101 -1.8093,0.747591 -0.0507,0.261546 0.05744,0.56801 0.240319,0.681032 0.406164,0.251023 1.884304,-1.094885 1.568981,-1.428623 z m 2.24603,0.579488 c 0.815075,-0.371375 0.725635,-0.9094 -0.134567,-0.809477 -0.737571,0.08567 -1.363962,0.561861 -1.164223,0.885047 0.193252,0.31269 0.483749,0.295786 1.29879,-0.07557 z m -10.1121,-1.211181 c 0.151183,-1.184325 -0.16574,-1.667441 -0.582723,-0.888301 -0.426863,0.7976 -0.976204,0.688287 -1.306793,-0.260041 -0.304758,-0.874233 -1.012852,-0.939442 -0.879338,-0.08098 0.206322,1.326608 0.641165,1.928003 1.469282,2.032048 0.458665,0.05763 0.910209,0.12383 1.003427,0.147119 0.09322,0.02328 0.226486,-0.404141 0.296145,-0.949844 z m 2.31249,-0.859895 c 0,-0.145521 -0.185621,-0.264584 -0.412491,-0.264584 -0.226869,0 -0.338904,0.119063 -0.248967,0.264584 0.08994,0.14552 0.275558,0.264583 0.412491,0.264583 0.136932,0 0.248967,-0.119063 0.248967,-0.264583 z m 7.672917,-3.307292 c 0,-0.218281 -0.112036,-0.396875 -0.248968,-0.396875 -0.333634,0 -0.572585,0.413171 -0.361201,0.624554 0.297971,0.297969 0.610169,0.181475 0.610169,-0.227679 z m -7.276042,-0.396875 c 0.08994,-0.145521 -0.08866,-0.264583 -0.396875,-0.264583 -0.308218,0 -0.486812,0.119062 -0.396875,0.264583 0.08994,0.145521 0.268531,0.264583 0.396875,0.264583 0.128344,0 0.306938,-0.119062 0.396875,-0.264583 z m 4.260895,-1.780426 c -0.268954,-0.268952 -0.490868,0.135966 -0.270198,0.493019 0.166696,0.269722 0.229018,0.269931 0.318638,0.0011 0.06128,-0.183829 0.03948,-0.406169 -0.04844,-0.494088 z M 41.797539,68.062999 c 1.20673,-0.879499 2.751677,-2.424002 2.751677,-2.750884 0,-0.125121 -0.208359,-0.608534 -0.463021,-1.074251 -0.405981,-0.742447 -0.479316,-1.922335 -0.595312,-9.578006 -0.127598,-8.421468 -0.153445,-8.770832 -0.728469,-9.846882 -1.004192,-1.87916 -1.277181,-1.892764 -4.397328,-0.219136 -1.504273,0.806883 -2.90112,1.466246 -3.104102,1.465252 -0.202982,-10e-4 -0.640111,-0.399929 -0.971397,-0.886521 -0.331286,-0.486592 -0.892172,-1.156998 -1.246413,-1.48979 -0.593528,-0.557591 -0.712371,-0.577179 -1.514329,-0.249593 -1.280428,0.523034 -4.442128,2.456796 -4.442128,2.716899 0,0.123323 0.238125,0.52695 0.529167,0.896949 0.50855,0.646517 0.529166,1.073357 0.529166,10.955795 v 10.283068 h 3.307292 3.307291 V 58.28465 c 0,-7.425973 0.08176,-10.083005 0.3175,-10.31875 0.544148,-0.544148 1.239522,-0.35016 1.660081,0.463111 0.334923,0.64767 0.404659,2.123368 0.40948,8.665104 0.0053,7.260809 0.04687,7.974962 0.524835,9.028191 1.30112,2.867086 2.245485,3.311274 4.12601,1.940693 z m 43.523957,-0.07544 c 1.723287,-1.224933 2.619385,-2.12558 2.619385,-2.632681 0,-0.247925 -0.23551,-0.969787 -0.523356,-1.604145 -0.484619,-1.068001 -0.523785,-1.755782 -0.529167,-9.292192 -0.0055,-7.665694 -0.03757,-8.206386 -0.55214,-9.301088 -0.300482,-0.639246 -0.781153,-1.37478 -1.068163,-1.634518 -0.505536,-0.457506 -0.611248,-0.425254 -3.385409,1.032859 -1.57497,0.82781 -2.995523,1.50511 -3.156786,1.50511 -0.161264,0 -0.683935,-0.527373 -1.161489,-1.171941 -1.28855,-1.73919 -1.740506,-1.911177 -3.145758,-1.197091 -0.63916,0.324791 -1.791465,0.991952 -2.56068,1.48258 l -1.398577,0.89205 0.670973,1.144926 0.67097,1.144925 v 9.964776 9.964774 h 3.175 3.174999 v -9.871305 c 0,-10.430928 0.058,-10.946688 1.206098,-10.725584 1.162323,0.223843 1.299485,1.177832 1.439736,10.013556 0.139025,8.758518 0.131307,8.702535 1.429422,10.370257 0.744741,0.956791 1.664583,0.931449 3.094942,-0.08527 z M 68.626299,58.10559 c 0,-10.210897 -0.01333,-10.478495 -0.595313,-11.944918 -0.327422,-0.825015 -0.976254,-1.909627 -1.441852,-2.410248 l -0.846539,-0.91022 -0.835541,0.485869 c -0.45955,0.267228 -1.560013,1.149151 -2.445475,1.959831 l -1.609934,1.473962 0.580035,0.938517 c 0.57009,0.922426 0.580036,1.109239 0.580036,10.895308 v 9.956792 h 3.307291 3.307292 z m -12.434271,8.279469 2.196087,-1.900844 -1.561637,-1.326829 c -0.858901,-0.729758 -2.257309,-2.024502 -3.107576,-2.877209 l -1.545939,-1.550382 3.585622,-3.665513 c 2.015691,-2.060607 3.662214,-3.970692 3.760557,-4.362525 0.207749,-0.827726 -0.485637,-2.03361 -3.155939,-5.488595 -1.321475,-1.709797 -1.896578,-2.264428 -2.232885,-2.153399 -0.249137,0.08225 -1.679855,1.411199 -3.179373,2.953218 -2.176791,2.238487 -2.937169,3.232619 -3.771961,4.931524 -2.052524,4.177141 -1.966664,7.264119 0.321445,11.55705 1.189217,2.231202 4.913122,5.777836 6.071629,5.782601 0.233135,0.0011 1.412121,-0.853636 2.61997,-1.899097 z M 50.604171,55.416905 c -0.581776,-0.701 -0.612304,-3.964442 -0.05217,-5.577559 0.263728,-0.759511 0.596122,-1.402985 0.738656,-1.429941 0.321696,-0.06084 3.048142,3.948112 3.048142,4.481973 0,0.51341 -2.456778,2.959105 -2.972514,2.959105 -0.22125,0 -0.564203,-0.195109 -0.762114,-0.433578 z M 22.853384,50.309848 c 0,-0.136933 -0.119063,-0.322553 -0.264584,-0.41249 -0.14552,-0.08994 -0.264583,0.0221 -0.264583,0.248969 0,0.226869 0.119063,0.412489 0.264583,0.412489 0.145521,0 0.264584,-0.112035 0.264584,-0.248968 z m 57.679164,-7.540625 c 0,-0.209693 -0.110836,-0.44976 -0.2463,-0.533482 -0.314561,-0.194409 -0.630928,0.301037 -0.415158,0.650159 0.2433,0.393666 0.661458,0.319906 0.661458,-0.116677 z M 65.594536,41.330239 c 0.981102,-0.445652 2.502596,-1.902568 2.502596,-2.396373 0,-0.113997 -0.646925,-0.274036 -1.437608,-0.355642 -0.891357,-0.092 -1.745255,-0.375828 -2.247268,-0.746982 l -0.809662,-0.598608 -1.126167,0.815285 c -1.413057,1.022977 -2.124768,1.959787 -1.911371,2.515892 0.214982,0.560235 1.858841,1.234383 3.03416,1.244311 0.509323,0.0043 1.407218,-0.210745 1.99532,-0.477883 z m 32.135928,34.363994 c 0,-0.49389 0.07056,-0.564444 0.3175,-0.3175 0.246944,0.246943 0.246944,0.388056 0,0.635 -0.246943,0.246943 -0.3175,0.176389 -0.3175,-0.3175 z"
       id="path67939" />
  </g>
</svg>
