<?xml version="1.0" encoding="UTF-8" standalone="no"?>
<!-- Created with Inkscape (http://www.inkscape.org/) -->

<svg
   width="85.195831mm"
   height="58.994766mm"
   viewBox="0 0 85.195831 58.994766"
   version="1.1"
   id="svg32163"
   inkscape:version="1.1 (c68e22c387, 2021-05-23)"
   sodipodi:docname="nein.svg"
   xmlns:inkscape="http://www.inkscape.org/namespaces/inkscape"
   xmlns:sodipodi="http://sodipodi.sourceforge.net/DTD/sodipodi-0.dtd"
   xmlns="http://www.w3.org/2000/svg"
   xmlns:svg="http://www.w3.org/2000/svg">
  <sodipodi:namedview
     id="namedview32165"
     pagecolor="#ffffff"
     bordercolor="#666666"
     borderopacity="1.0"
     inkscape:pageshadow="2"
     inkscape:pageopacity="0.0"
     inkscape:pagecheckerboard="0"
     inkscape:document-units="mm"
     showgrid="false"
     fit-margin-top="0"
     fit-margin-left="0"
     fit-margin-right="0"
     fit-margin-bottom="0"
     inkscape:zoom="2.8284271"
     inkscape:cx="228.92582"
     inkscape:cy="65.230601"
     inkscape:window-width="2554"
     inkscape:window-height="1375"
     inkscape:window-x="0"
     inkscape:window-y="32"
     inkscape:window-maximized="1"
     inkscape:current-layer="layer1" />
  <defs
     id="defs32160">
    <rect
       x="105.58179"
       y="63.995972"
       width="173.72888"
       height="114.79272"
       id="rect3734" />
    <rect
       x="113.92185"
       y="162.33429"
       width="492.5661"
       height="234.32812"
       id="rect35482" />
  </defs>
  <g
     inkscape:groupmode="layer"
     id="layer2"
     inkscape:label="Layer 2" />
  <g
     inkscape:label="Layer 1"
     inkscape:groupmode="layer"
     id="layer1"
     transform="translate(-53.799151,-73.073405)">
    <text
       xml:space="preserve"
       transform="scale(0.26458333)"
       id="text35480"
       style="font-style:normal;font-weight:normal;font-size:40px;line-height:1.25;font-family:sans-serif;white-space:pre;shape-inside:url(#rect35482);fill:#000000;fill-opacity:1;stroke:none" />
    <path
       id="path67818"
       style="fill:#000000;stroke-width:0.999999"
       d="M 161.36328 0 C 54.710814 0 3.2434418 0.33414844 1.9335938 1.0351562 C 0.039320968 2.0489276 2.9605947e-16 4.3342495 0 111.48633 C 0 214.63625 0.100206 220.95901 1.75 221.91992 C 2.918029 222.60035 55.936108 222.94985 161.17773 222.96875 C 303.21463 222.99615 319.01219 222.84328 320.42773 221.42773 C 321.83701 220.0185 322 208.67313 322 111.5 C 322 14.326828 321.83697 2.9815041 320.42773 1.5722656 C 319.01245 0.15701023 303.20658 0 161.36328 0 z M 11 11 L 161 11 L 311 11 L 311 111.5 L 311 212 L 161 212 L 11 212 L 11 111.5 L 11 11 z M 15.5 15.5 L 15.4375 111.64062 L 15.376953 207.7832 L 160.89844 207.64062 L 306.41992 207.5 L 15.5 207.5 L 15.5 15.5 z M 306.41992 207.5 L 306.42188 111.5 L 306.42578 15.5 L 306.41992 15.5 L 306.41992 207.5 z "
       transform="matrix(0.26458333,0,0,0.26458333,53.799151,73.073405)" />
    <text
       xml:space="preserve"
       transform="matrix(0.26458333,0,0,0.26458333,53.799151,73.073405)"
       id="text3732"
       style="fill:black;fill-opacity:1;line-height:1.25;stroke:none;font-family:sans-serif;font-style:normal;font-weight:normal;font-size:40px;white-space:pre;shape-inside:url(#rect3734)" />
    <text
       xml:space="preserve"
       style="font-size:35.2777px;line-height:1.25;font-family:'Beth Ellen';-inkscape-font-specification:'Beth Ellen, Normal';stroke-width:0.264583"
       x="60.803898"
       y="169.45525"
       id="text30532"><tspan
         sodipodi:role="line"
         id="tspan30530"
         style="stroke-width:0.264583"
         x="60.803898"
         y="169.45525" /></text>
    <g
       aria-label="nein"
       id="text113379"
       style="font-size:35.2777px;line-height:1.25;font-family:'Beth Ellen';-inkscape-font-specification:'Beth Ellen, Normal';stroke-width:0.264583">
      <path
         d="m 73.189706,113.91971 v -12.84465 l -1.901474,-0.31044 -1.59103,2.52236 v 11.48646 h -6.402924 v -13.54316 l -2.367141,-0.46566 2.444752,-4.889509 6.208896,1.31939 v 1.823863 l -1.629835,3.880556 0.310445,0.11642 4.423838,-6.985007 6.907397,1.047751 v 12.844656 l 2.367141,0.46566 -2.444752,4.88951 z"
         style="font-size:38.8056px;font-family:EskapadeFrakturW04-Black;-inkscape-font-specification:'EskapadeFrakturW04-Black, Normal'"
         id="path4499" />
      <path
         d="m 92.476016,101.03626 -2.28953,-0.31045 q -0.194028,0.81492 -0.349251,1.97909 -0.155222,1.16416 -0.116417,3.84175 l 2.755198,-1.66864 z m 3.608921,13.93121 -12.068542,-0.89253 q -0.426861,-2.67759 -0.543278,-5.97607 -0.07761,-3.33728 0.271639,-6.05367 l 5.743229,-6.325312 8.770065,1.358196 v 5.937256 l -8.420815,5.19995 q 0.03881,0.93134 0.194028,1.3582 l 8.226787,0.50447 z"
         style="font-size:38.8056px;font-family:EskapadeFrakturW04-Black;-inkscape-font-specification:'EskapadeFrakturW04-Black, Normal'"
         id="path4501" />
      <path
         d="m 108.34749,87.997574 v 4.385033 l -1.12536,2.28953 -5.47159,-0.426861 V 89.70502 l 1.28059,-2.134308 z m -6.36411,25.922136 v -12.5342 l -2.367145,-0.46567 2.444755,-5.044729 6.32531,1.31939 v 12.728239 l 2.36714,0.46566 -2.44475,4.88951 z"
         style="font-size:38.8056px;font-family:EskapadeFrakturW04-Black;-inkscape-font-specification:'EskapadeFrakturW04-Black, Normal'"
         id="path4503" />
      <path
         d="m 123.40403,113.91971 v -12.84465 l -1.90148,-0.31044 -1.59103,2.52236 v 11.48646 h -6.40292 v -13.54316 l -2.36714,-0.46566 2.44475,-4.889509 6.2089,1.31939 v 1.823863 l -1.62984,3.880556 0.31045,0.11642 4.42383,-6.985007 6.9074,1.047751 v 12.844656 l 2.36714,0.46566 -2.44475,4.88951 z"
         style="font-size:38.8056px;font-family:EskapadeFrakturW04-Black;-inkscape-font-specification:'EskapadeFrakturW04-Black, Normal'"
         id="path4505" />
    </g>
  </g>
</svg>
