<?xml version="1.0" encoding="UTF-8" standalone="no"?>
<!-- Created with Inkscape (http://www.inkscape.org/) -->

<svg
   width="85.195831mm"
   height="58.994766mm"
   viewBox="0 0 85.195831 58.994766"
   version="1.1"
   id="svg32163"
   inkscape:version="1.3.2 (091e20ef0f, 2023-11-25)"
   sodipodi:docname="nein.svg"
   xmlns:inkscape="http://www.inkscape.org/namespaces/inkscape"
   xmlns:sodipodi="http://sodipodi.sourceforge.net/DTD/sodipodi-0.dtd"
   xmlns="http://www.w3.org/2000/svg"
   xmlns:svg="http://www.w3.org/2000/svg">
  <sodipodi:namedview
     id="namedview32165"
     pagecolor="#ffffff"
     bordercolor="#666666"
     borderopacity="1.0"
     inkscape:pageshadow="2"
     inkscape:pageopacity="0.0"
     inkscape:pagecheckerboard="0"
     inkscape:document-units="mm"
     showgrid="false"
     fit-margin-top="0"
     fit-margin-left="0"
     fit-margin-right="0"
     fit-margin-bottom="0"
     inkscape:zoom="0.99999999"
     inkscape:cx="173"
     inkscape:cy="340.5"
     inkscape:window-width="2129"
     inkscape:window-height="1133"
     inkscape:window-x="0"
     inkscape:window-y="0"
     inkscape:window-maximized="0"
     inkscape:current-layer="text113379"
     inkscape:showpageshadow="2"
     inkscape:deskcolor="#d1d1d1" />
  <defs
     id="defs32160">
    <rect
       x="105.58179"
       y="63.995972"
       width="173.72888"
       height="114.79272"
       id="rect3734" />
    <rect
       x="113.92185"
       y="162.33429"
       width="492.5661"
       height="234.32812"
       id="rect35482" />
  </defs>
  <g
     inkscape:groupmode="layer"
     id="layer2"
     inkscape:label="Layer 2" />
  <g
     inkscape:label="Layer 1"
     inkscape:groupmode="layer"
     id="layer1"
     transform="translate(-53.799151,-73.073405)">
    <text
       xml:space="preserve"
       transform="scale(0.26458333)"
       id="text35480"
       style="font-style:normal;font-weight:normal;font-size:40px;line-height:1.25;font-family:sans-serif;white-space:pre;shape-inside:url(#rect35482);display:inline;fill:#000000;fill-opacity:1;stroke:none" />
    <path
       id="path67818"
       style="fill:#000000;stroke-width:0.999999"
       d="M 161.36328 0 C 54.710814 0 3.2434418 0.33414844 1.9335938 1.0351562 C 0.039320968 2.0489276 2.9605947e-16 4.3342495 0 111.48633 C 0 214.63625 0.100206 220.95901 1.75 221.91992 C 2.918029 222.60035 55.936108 222.94985 161.17773 222.96875 C 303.21463 222.99615 319.01219 222.84328 320.42773 221.42773 C 321.83701 220.0185 322 208.67313 322 111.5 C 322 14.326828 321.83697 2.9815041 320.42773 1.5722656 C 319.01245 0.15701023 303.20658 0 161.36328 0 z M 11 11 L 161 11 L 311 11 L 311 111.5 L 311 212 L 161 212 L 11 212 L 11 111.5 L 11 11 z M 15.5 15.5 L 15.4375 111.64062 L 15.376953 207.7832 L 160.89844 207.64062 L 306.41992 207.5 L 15.5 207.5 L 15.5 15.5 z M 306.41992 207.5 L 306.42188 111.5 L 306.42578 15.5 L 306.41992 15.5 L 306.41992 207.5 z "
       transform="matrix(0.26458333,0,0,0.26458333,53.799151,73.073405)" />
    <text
       xml:space="preserve"
       transform="matrix(0.26458333,0,0,0.26458333,53.799151,73.073405)"
       id="text3732"
       style="font-style:normal;font-weight:normal;font-size:40px;line-height:1.25;font-family:sans-serif;white-space:pre;shape-inside:url(#rect3734);display:inline;fill:#000000;fill-opacity:1;stroke:none" />
    <text
       xml:space="preserve"
       style="font-size:35.2777px;line-height:1.25;font-family:'Beth Ellen';-inkscape-font-specification:'Beth Ellen, Normal';stroke-width:0.264583"
       x="60.803898"
       y="169.45525"
       id="text30532"><tspan
         sodipodi:role="line"
         id="tspan30530"
         style="stroke-width:0.264583"
         x="60.803898"
         y="169.45525" /></text>
    <g
       aria-label="nein"
       id="text113379"
       style="font-size:35.2777px;line-height:1.25;font-family:'Beth Ellen';-inkscape-font-specification:'Beth Ellen, Normal';stroke-width:0.264583">
      <path
         style="font-size:42.3333px;font-family:UnifrakturCook;-inkscape-font-specification:UnifrakturCook;stroke-width:0.0700042"
         d="m 72.408889,98.922427 2.418455,-3.017902 6.593908,4.774895 -0.620117,2.43913 -0.268717,6.65592 q 0,0.062 0,0.12403 0,1.01286 0.620116,1.67431 0.620117,0.64079 1.405598,0.97152 l -4.134111,5.04362 q -1.529621,-1.1989 -2.356444,-2.12907 -0.806151,-0.93018 -0.806151,-3.82406 0,-0.2067 0,-0.43408 l 0.144693,-7.64811 q 0,-0.86816 -2.645831,-2.89388 l -0.826822,1.30225 -0.392741,7.81347 q 0,0.062 0,0.12403 0,1.01286 0.620117,1.67431 0.620117,0.64079 1.426268,0.97152 l -4.134111,5.04362 -4.361488,-3.53467 q 1.178222,-1.42627 1.178222,-2.85254 l 0.165364,-9.38443 q 0,-0.99219 -1.529621,-1.984379 l 3.121254,-3.927406 z m 21.600732,18.665523 -9.901197,-3.94808 q 0.558105,-3.10058 0.558105,-6.44922 0,-3.3693 -0.640787,-7.02799 l 7.131342,-4.196123 v -0.06201 l 0.04134,0.02067 h 0.02067 l 8.040846,5.767083 -8.371575,8.80566 q 0.847493,1.01286 1.88102,1.11621 1.033528,0.10336 1.694986,0.10336 0.682129,0 1.591633,-0.062 0.930175,-0.0827 2.273761,-0.12403 -1.095539,1.52962 -2.170408,3.03857 -1.074869,1.50895 -2.149738,3.01791 z m -3.431313,-16.10237 q -1.198892,0 -1.198892,3.26595 0,1.86035 0.620117,3.7207 0,0.18603 0.06201,0.31006 l 3.32796,-3.514 q 0.3514,-0.37207 0.3514,-0.74414 0,-0.37207 -0.37207,-0.95085 -0.3514,-0.57877 -0.72347,-0.95084 -1.302245,-1.13688 -2.067055,-1.13688 z m 9.694492,-1.653649 3.12126,-3.927406 4.6302,2.170409 q -0.24805,0.847493 -0.53743,1.653645 -0.28939,0.806151 -0.28939,1.653641 l -0.28939,8.39225 q 0,0.10336 0,0.18604 0,0.97152 0.62012,1.6123 0.62011,0.64079 1.42627,0.97152 l -4.13412,5.04362 -4.38215,-3.53467 q 1.19889,-1.42627 1.19889,-2.85254 l 0.14469,-9.38443 q 0,-0.99219 -1.50895,-1.984379 z m 0.62012,-4.113441 1.65364,-8.16487 6.13916,2.459797 z m 16.8465,3.203937 2.41846,-3.017902 6.5939,4.774895 -0.62011,2.43913 -0.26872,6.65592 q 0,0.062 0,0.12403 0,1.01286 0.62012,1.67431 0.62011,0.64079 1.40559,0.97152 l -4.13411,5.04362 q -1.52962,-1.1989 -2.35644,-2.12907 -0.80615,-0.93018 -0.80615,-3.82406 0,-0.2067 0,-0.43408 l 0.14469,-7.64811 q 0,-0.86816 -2.64583,-2.89388 l -0.82682,1.30225 -0.39274,7.81347 q 0,0.062 0,0.12403 0,1.01286 0.62011,1.67431 0.62012,0.64079 1.42627,0.97152 l -4.13411,5.04362 -4.36149,-3.53467 q 1.17823,-1.42627 1.17823,-2.85254 l 0.16536,-9.38443 q 0,-0.99219 -1.52962,-1.984379 l 3.12125,-3.927406 z"
         id="text1"
         aria-label="nein" />
    </g>
  </g>
</svg>
