<?xml version="1.0" encoding="UTF-8" standalone="no"?>
<!-- Created with Inkscape (http://www.inkscape.org/) -->

<svg
   width="85.195831mm"
   height="58.994766mm"
   viewBox="0 0 85.195831 58.994766"
   version="1.1"
   id="svg32163"
   inkscape:version="1.1.1 (3bf5ae0d25, 2021-09-20)"
   sodipodi:docname="novote.svg"
   xmlns:inkscape="http://www.inkscape.org/namespaces/inkscape"
   xmlns:sodipodi="http://sodipodi.sourceforge.net/DTD/sodipodi-0.dtd"
   xmlns="http://www.w3.org/2000/svg"
   xmlns:svg="http://www.w3.org/2000/svg">
  <sodipodi:namedview
     id="namedview32165"
     pagecolor="#ffffff"
     bordercolor="#666666"
     borderopacity="1.0"
     inkscape:pageshadow="2"
     inkscape:pageopacity="0.0"
     inkscape:pagecheckerboard="0"
     inkscape:document-units="mm"
     showgrid="false"
     fit-margin-top="0"
     fit-margin-left="0"
     fit-margin-right="0"
     fit-margin-bottom="0"
     inkscape:zoom="1.28"
     inkscape:cx="216.79688"
     inkscape:cy="234.76562"
     inkscape:window-width="2554"
     inkscape:window-height="1375"
     inkscape:window-x="0"
     inkscape:window-y="32"
     inkscape:window-maximized="1"
     inkscape:current-layer="text15191" />
  <defs
     id="defs32160">
    <rect
       x="52.387977"
       y="67.712045"
       width="299.36639"
       height="186.74981"
       id="rect3461" />
    <rect
       x="113.92185"
       y="162.33429"
       width="492.5661"
       height="234.32812"
       id="rect35482" />
  </defs>
  <g
     inkscape:groupmode="layer"
     id="layer2"
     inkscape:label="Layer 2" />
  <g
     inkscape:label="Layer 1"
     inkscape:groupmode="layer"
     id="layer1"
     transform="translate(-53.799151,-73.073405)">
    <text
       xml:space="preserve"
       transform="scale(0.26458333)"
       id="text35480"
       style="font-style:normal;font-weight:normal;font-size:40px;line-height:1.25;font-family:sans-serif;white-space:pre;shape-inside:url(#rect35482);fill:#000000;fill-opacity:1;stroke:none" />
    <path
       id="path67818"
       style="fill:#000000;stroke-width:0.999999"
       d="M 161.36328 0 C 54.710814 0 3.2434418 0.33414844 1.9335938 1.0351562 C 0.039320968 2.0489276 2.9605947e-16 4.3342495 0 111.48633 C 0 214.63625 0.100206 220.95901 1.75 221.91992 C 2.918029 222.60035 55.936108 222.94985 161.17773 222.96875 C 303.21463 222.99615 319.01219 222.84328 320.42773 221.42773 C 321.83701 220.0185 322 208.67313 322 111.5 C 322 14.326828 321.83697 2.9815041 320.42773 1.5722656 C 319.01245 0.15701023 303.20658 0 161.36328 0 z M 11 11 L 161 11 L 311 11 L 311 111.5 L 311 212 L 161 212 L 11 212 L 11 111.5 L 11 11 z M 15.5 15.5 L 15.4375 111.64062 L 15.376953 207.7832 L 160.89844 207.64062 L 306.41992 207.5 L 15.5 207.5 L 15.5 15.5 z M 306.41992 207.5 L 306.42188 111.5 L 306.42578 15.5 L 306.41992 15.5 L 306.41992 207.5 z "
       transform="matrix(0.26458333,0,0,0.26458333,53.799151,73.073405)" />
    <g
       aria-label="~"
       transform="matrix(0.29075869,0,0,0.2632412,66.29827,72.693531)"
       id="text3459"
       style="font-size:40px;line-height:1.25;white-space:pre;shape-inside:url(#rect3461)">
      <text
         xml:space="preserve"
         style="font-style:normal;font-weight:normal;font-size:38.2542px;line-height:1.25;font-family:sans-serif;fill:#000000;fill-opacity:1;stroke:none;stroke-width:0.956355"
         x="138.39583"
         y="118.40756"
         id="text2677"
         transform="scale(0.95150391,1.0509678)"><tspan
           sodipodi:role="line"
           id="tspan2675"
           style="stroke-width:0.956355"></tspan></text>
      <g
         aria-label="X"
         transform="scale(0.95150393,1.0509678)"
         id="text15191"
         style="font-size:127.514px;word-spacing:0px;stroke-width:0.956355">
        <path
           d="m 174.23169,129.16445 q 2.93282,-2.42277 5.22807,-1.97647 2.29525,0.4463 2.29525,4.39923 0,0.76509 -0.19127,1.59393 -0.19127,0.82884 -0.63757,1.59392 -0.4463,0.76509 -0.95635,1.40266 -0.51006,0.63757 -1.27514,1.3389 -0.76509,0.70132 -1.40266,1.27514 -0.63757,0.57381 -1.53016,1.14762 -0.8926,0.57381 -1.53017,1.02011 -0.63757,0.4463 -1.46641,0.95636 -0.82884,0.51005 -1.21139,0.8926 -3.31536,2.16773 -6.75824,3.6979 -0.51005,0.12752 -3.50663,1.7852 -2.99658,1.65768 -5.16432,2.67779 -2.42277,1.91271 -5.99316,3.44288 -7.52332,3.06034 -15.17416,2.80531 -7.65084,-0.25503 -15.17417,-3.18785 -6.63073,-2.55028 -15.04665,-10.71118 -6.758244,-6.75824 -9.308524,-6.75824 -4.335476,0 -11.540017,5.35559 -7.204541,5.35559 -13.962783,13.77151 -9.946092,11.98632 -12.11383,11.98632 -3.060336,0 -5.355588,-3.44288 -2.295252,-3.44288 -1.402654,-6.24819 0.765084,-3.18785 8.670952,-11.34874 15.30168,-15.81174 27.160482,-33.28116 4.590504,-7.2683 5.291831,-9.81858 0.701327,-2.55028 0.06376,-11.603769 -0.765084,-9.946092 -4.590504,-19.1271 -3.82542,-9.181008 -8.670952,-12.496372 -10.20112,-6.630728 -25.630314,9.56355 -9.053494,9.308522 -13.38897,9.308522 -8.92598,0 -3.697906,-9.946092 1.530168,-3.315364 9.181008,-10.073606 7.65084,-6.758242 16.831848,-11.348746 6.503214,-3.18785 9.627307,-3.889177 3.124093,-0.701327 9.372279,-0.06376 10.073606,1.147626 11.858802,2.040224 4.207962,1.402654 9.563546,15.492951 5.35559,14.090297 5.61062,23.653847 0,3.18785 0.8926,4.080448 0.63757,0.765084 12.49637,-11.922559 11.8588,-12.687643 11.8588,-14.281568 0,-1.593925 6.50322,-8.607195 6.12067,-6.758242 8.16089,-10.711176 1.65768,-2.932822 2.55028,-3.315364 0.8926,-0.382542 4.46299,1.27514 2.93282,1.785196 2.86907,5.865644 -0.0638,4.080448 -3.63415,8.543438 -3.69791,4.590504 -5.99316,9.308522 -2.16774,3.952934 -20.9123,23.207548 l -18.87207,18.362017 1.02011,6.75824 q 2.55028,18.36202 8.79847,22.56998 3.18785,2.29525 7.90587,6.50321 2.80531,2.93282 7.84211,3.25161 5.0368,0.31878 10.39239,-1.40265 5.35559,-1.72144 8.22465,-2.86907 2.86907,-1.14763 4.52675,-2.04022 10.58366,-5.48311 16.83185,-10.45615 z"
           style="font-family:'Beth Ellen';-inkscape-font-specification:'Beth Ellen'"
           id="path41961" />
      </g>
    </g>
  </g>
</svg>
