<?xml version="1.0" encoding="UTF-8" standalone="no"?>
<!-- Generator: Adobe Illustrator 21.1.0, SVG Export Plug-In . SVG Version: 6.00 Build 0)  -->

<svg
   version="1.1"
   id="Calque_1"
   x="0px"
   y="0px"
   viewBox="0 0 153.23167 104"
   xml:space="preserve"
   sodipodi:docname="party_fdp.svg"
   width="153.23167mm"
   height="104mm"
   inkscape:version="1.1 (c68e22c387, 2021-05-23)"
   xmlns:inkscape="http://www.inkscape.org/namespaces/inkscape"
   xmlns:sodipodi="http://sodipodi.sourceforge.net/DTD/sodipodi-0.dtd"
   xmlns="http://www.w3.org/2000/svg"
   xmlns:svg="http://www.w3.org/2000/svg"
   xmlns:rdf="http://www.w3.org/1999/02/22-rdf-syntax-ns#"
   xmlns:cc="http://creativecommons.org/ns#"
   xmlns:dc="http://purl.org/dc/elements/1.1/"><defs
   id="defs41" /><sodipodi:namedview
   id="namedview39"
   pagecolor="#ffffff"
   bordercolor="#666666"
   borderopacity="1.0"
   inkscape:pageshadow="2"
   inkscape:pageopacity="0.0"
   inkscape:pagecheckerboard="0"
   showgrid="false"
   fit-margin-top="0"
   fit-margin-left="0"
   fit-margin-right="0"
   fit-margin-bottom="0"
   inkscape:zoom="3.5333333"
   inkscape:cx="68.915094"
   inkscape:cy="32.40566"
   inkscape:window-width="2554"
   inkscape:window-height="1375"
   inkscape:window-x="0"
   inkscape:window-y="32"
   inkscape:window-maximized="1"
   inkscape:current-layer="Calque_1" />
<style
   type="text/css"
   id="style2">
	.st0{fill:#009AEA;}
	.st1{fill:#0E52A0;}
</style>
<title
   id="title4">logo_fdp</title>
<rect
   y="95.400002"
   class="st0"
   width="153.23167"
   height="8.6000004"
   id="rect6"
   x="0"
   style="stroke-width:0.753342" />
<path
   class="st1"
   d="m 12.4,55.9 h 6.5 c 5.1,0 6.1,3.4 6.1,9.3 0,2.9 0.4,9.4 -6.2,9.4 h -6.4 z m 3.9,15.9 h 1.9 c 2.4,0 2.9,-1.8 2.9,-6.5 0,-3.4 0,-6.5 -2.7,-6.5 h -2 z"
   id="path8" />
<path
   class="st1"
   d="m 31.9,55.9 v 2.9 h -3.6 v -2.9 z m 0,18.7 h -3.6 v -13 h 3.6 z"
   id="path10" />
<path
   class="st1"
   d="m 38.5,68.7 c 0,1.6 0,3.9 1.7,3.9 1.3,0 1.6,-1.2 1.6,-2.3 h 3.7 c 0,1.3 -0.5,2.5 -1.4,3.4 -1.1,0.9 -2.5,1.4 -3.9,1.3 -4.7,0 -5.3,-2.9 -5.3,-7 0,-3.6 0.5,-6.6 5.3,-6.6 4.8,0 5.5,3.2 5.3,7.4 z m 3.4,-2 c 0,-1.3 0,-3.1 -1.7,-3.1 -1.7,0 -1.7,2 -1.7,3.1 z"
   id="path12" />
<path
   class="st1"
   d="M 54.1,74.7 V 55.9 H 58 v 15.6 h 5.9 v 3.1 h -9.8 z"
   id="path14" />
<path
   class="st1"
   d="m 69.3,55.9 v 2.9 h -3.7 v -2.9 z m 0,18.7 h -3.7 v -13 h 3.7 z"
   id="path16" />
<path
   class="st1"
   d="m 72.6,55.9 h 3.7 v 6.9 h 0.1 c 0.6,-1 1.8,-1.6 3,-1.5 3.7,0 3.6,4.1 3.6,6.7 0,2.6 0.1,6.9 -3.7,6.9 C 78,75 76.8,74.3 76.2,73.2 h -0.1 v 1.4 h -3.5 z m 6.7,12 c 0,-2.6 0,-4.4 -1.6,-4.4 -1.6,0 -1.5,1.9 -1.5,4.5 0,3.3 0.2,4.7 1.5,4.7 1.3,0 1.6,-1.4 1.6,-4.8 z"
   id="path18" />
<path
   class="st1"
   d="m 88.9,68.7 c 0,1.6 0.1,3.9 1.7,3.9 1.3,0 1.6,-1.2 1.6,-2.3 h 3.7 c 0,1.3 -0.5,2.5 -1.4,3.4 -1.1,0.9 -2.5,1.4 -3.9,1.3 -4.7,0 -5.3,-2.9 -5.3,-7 0,-3.6 0.5,-6.6 5.3,-6.6 4.8,0 5.5,3.2 5.3,7.4 z m 3.3,-2 c 0,-1.3 0.1,-3.1 -1.7,-3.1 -1.8,0 -1.7,2 -1.7,3.1 z"
   id="path20" />
<path
   class="st1"
   d="m 102,61.6 v 1.7 0 c 0.6,-1.3 2,-2.1 3.4,-1.9 v 3.3 c -3.2,-0.2 -3.3,1.7 -3.3,3 v 7.1 H 98.5 V 61.6 Z"
   id="path22" />
<path
   class="st1"
   d="m 117,72.2 c 0,0.8 0.1,1.6 0.2,2.4 h -3.4 l -0.2,-1.7 h -0.1 c -0.6,1.3 -2,2.1 -3.4,2 -2.5,0 -3.5,-1.9 -3.5,-4.2 0,-4.3 3.3,-4.5 6.7,-4.5 v -1 c 0,-1.1 -0.2,-1.9 -1.5,-1.9 -1.3,0 -1.4,1 -1.4,2 H 107 c -0.1,-1.2 0.4,-2.4 1.3,-3.2 1,-0.6 2.2,-0.9 3.4,-0.9 4.6,0 5.2,2 5.2,4.4 v 6.6 z m -6.7,-1.6 c 0,0.9 0.2,2.1 1.3,2.1 2.2,0 1.8,-2.9 1.8,-4.3 -1.7,0 -3.1,-0.2 -3.1,2.2 z"
   id="path24" />
<path
   class="st1"
   d="m 124,55.9 v 18.7 h -3.7 V 55.9 Z"
   id="path26" />
<path
   class="st1"
   d="m 130.6,68.7 c 0,1.6 0.1,3.9 1.7,3.9 1.3,0 1.6,-1.2 1.6,-2.3 h 3.7 c 0,1.3 -0.5,2.5 -1.4,3.4 -1.1,0.9 -2.5,1.4 -3.9,1.3 -4.7,0 -5.3,-2.9 -5.3,-7 0,-3.6 0.5,-6.6 5.3,-6.6 4.8,0 5.5,3.2 5.3,7.4 z m 3.4,-2 c 0,-1.3 0.1,-3.1 -1.7,-3.1 -1.8,0 -1.7,2 -1.7,3.1 z"
   id="path28" />
<path
   class="st1"
   d="m 143.9,62.9 v 0 c 0.3,-0.5 0.8,-1 1.3,-1.2 0.6,-0.3 1.2,-0.4 1.8,-0.4 1.7,0 3.3,1 3.3,2.9 v 10.5 h -3.6 v -9 c 0,-1.2 -0.2,-2.1 -1.4,-2.1 -1.2,0 -1.4,0.9 -1.4,2.1 v 9 h -3.6 V 61.6 h 3.6 z"
   id="path30" />
<path
   class="st1"
   d="M 13.6,5.3 C 13.3,3.2 12.2,3.2 10,3.1 8.9,3 8.6,3.1 8.6,1.7 8.6,0.5 8.6,0 9.7,0 13.1,0 16.5,0.1 19.9,0.1 27.2,0.1 34.4,0 41.6,0 c 0.7,0 1.1,0.1 1.1,0.8 0,0.3 -0.6,4.8 -1.1,8.9 -0.1,0.8 -0.4,1.1 -1.9,1.1 C 38.2,10.8 38.3,10.7 38,9.7 37.2,5.1 37.1,4.8 35.3,4.4 32.6,4 29.8,3.9 27,3.9 c -2.4,0 -2.5,0.5 -2.6,1.1 -0.1,3.8 -0.1,10.8 -0.2,12.1 6,-0.1 8.9,-0.1 10,-1.1 0.6,-0.5 0.8,-1.3 1,-2.9 0.1,-0.6 0.2,-0.7 1.7,-0.7 1.5,0 1.5,0.5 1.5,1 0,1.6 -0.2,3 -0.2,5.8 0,3.1 0.2,5.3 0.2,6 0,1.1 -0.6,1.2 -1.5,1.2 -1.5,0 -1.5,-0.2 -1.8,-2 -0.5,-2.1 -0.8,-3.1 -4.3,-3.3 -2.1,-0.2 -4.3,-0.2 -6.4,-0.1 -0.1,2.2 -0.2,11.3 0.4,12.9 0.4,1.1 0.8,1.1 4.9,1.2 0.6,0 1,0.1 1,1.4 0,1.3 0,1.7 -1.1,1.7 -3.3,0 -6.5,-0.2 -9.8,-0.2 -3.3,0 -6.8,0.2 -10.2,0.2 -0.7,0 -1,-0.2 -1,-0.8 0,-1.8 0,-2 0.7,-2 4.3,-0.6 4.4,-0.6 4.6,-6.9 -0.1,-4.6 0,-20.7 -0.3,-23.2 z"
   id="path32" />
<path
   class="st1"
   d="m 85.8,33.8 c -6,4.2 -14,4.2 -20,4.2 -2,0 -10.8,-0.1 -16.1,0 H 48 c -0.5,0 -0.6,-0.2 -0.6,-1.7 0,-0.9 0,-1.1 0.8,-1.2 4.7,-0.5 4.7,-0.5 4.9,-6.8 C 53.2,23.8 53.3,7.8 53,5.4 52.7,3.3 51.6,3.3 49.4,3.2 48.3,3.2 48,3.2 48,1.8 c 0,-1.2 0,-1.7 1.1,-1.7 2.6,0 5.1,0.2 7.6,0.2 4,0 8.1,-0.2 12.2,-0.2 8,0 12.9,0.5 16.7,2.9 6.7,4 7.8,10.6 7.8,15 0,4.4 -1.1,11.4 -7.6,15.8 z M 64.1,5.5 c -0.4,2.8 -0.4,17 -0.3,21.1 0,7 0,7.8 4.7,7.8 2.5,0 5,-0.5 7.3,-1.6 5.9,-2.9 6.4,-11.1 6.4,-14.1 0,-5 -1.2,-10.4 -5.5,-13.3 -2.3,-1.4 -5.1,-2.1 -7.8,-2 -4,0 -4.6,0.4 -4.8,2.1 z"
   id="path34" />
<path
   class="st1"
   d="m 113.1,30.9 c 0,3.8 0.8,4 3.9,4 2,0 2.1,0.1 2.1,1.2 0,1.7 -0.1,1.9 -1.2,1.9 -3.1,0 -6.1,-0.2 -9.2,-0.2 -3.4,0 -6.8,0.2 -10.2,0.2 -1.1,0 -1.2,-0.1 -1.2,-1.3 0,-1.4 0,-1.5 1.4,-1.7 2.1,-0.2 3.4,-0.4 3.6,-3.5 0.2,-4.2 0.2,-9.5 0.2,-18.7 V 8.3 c 0,-4.3 -0.5,-4.9 -3.2,-5.1 -1.9,-0.1 -2,-0.1 -2,-1.5 0,-1.4 0,-1.7 1.1,-1.7 2,0 4.8,0.1 11.7,0.1 11.7,0 15.6,0 19.6,2.4 2.9,1.8 4.6,5.1 4.5,8.5 0,8.4 -7.7,12.3 -15.6,12.3 -1.8,0 -3.5,-0.1 -5.5,-0.2 z m 2.2,-11.1 c 7.4,0 7.5,-5.9 7.5,-7.9 0,-8.4 -5.3,-8.4 -7.4,-8.4 -1.8,0 -2.3,0 -2.3,1.4 -0.1,4.5 -0.2,10.3 -0.1,14.8 0.8,0 1.6,0.1 2.3,0.1 z"
   id="path36" />
<metadata
   id="metadata45"><rdf:RDF><cc:Work
       rdf:about=""><dc:title>logo_fdp</dc:title></cc:Work></rdf:RDF></metadata></svg>
