<?xml version="1.0" encoding="UTF-8" standalone="no"?>
<!-- Created with Inkscape (http://www.inkscape.org/) -->

<svg
   version="1.1"
   id="svg2"
   xml:space="preserve"
   width="137.54668mm"
   height="152.56mm"
   viewBox="0 0 137.54668 152.56"
   sodipodi:docname="party_glp.svg"
   inkscape:version="1.1 (c68e22c387, 2021-05-23)"
   xmlns:inkscape="http://www.inkscape.org/namespaces/inkscape"
   xmlns:sodipodi="http://sodipodi.sourceforge.net/DTD/sodipodi-0.dtd"
   xmlns="http://www.w3.org/2000/svg"
   xmlns:svg="http://www.w3.org/2000/svg"><defs
     id="defs6" /><sodipodi:namedview
     id="namedview4"
     pagecolor="#ffffff"
     bordercolor="#666666"
     borderopacity="1.0"
     inkscape:pageshadow="2"
     inkscape:pageopacity="0.0"
     inkscape:pagecheckerboard="0"
     showgrid="false"
     inkscape:zoom="4.0463046"
     inkscape:cx="80.443771"
     inkscape:cy="79.455214"
     inkscape:window-width="2554"
     inkscape:window-height="1375"
     inkscape:window-x="0"
     inkscape:window-y="32"
     inkscape:window-maximized="1"
     inkscape:current-layer="g8" /><g
     id="g8"
     inkscape:groupmode="layer"
     inkscape:label="ink_ext_XXXXXX"
     transform="matrix(1.3333333,0,0,-1.3333333,0,152.56)"><g
       id="g10"
       transform="scale(0.1)"><path
         d="m 152.168,632.211 c -63.8086,0 -57.9219,-135.469 -57.9219,-170.801 0,-37.305 -5.8867,-175.711 60.8589,-175.711 66.774,0 56.965,130.555 56.965,170.801 0,40.242 0,175.711 -59.902,175.711 z M 304.348,207.145 C 304.348,30.4414 251.332,0 153.148,0 63.8398,0 6.87109,51.0508 6.87109,143.352 v 13.734 H 96.2266 C 94.2461,121.73 108.969,82.4805 155.105,82.4805 c 61.852,0 55.965,59.8715 55.965,105.0355 v 82.461 h -1.953 C 196.348,229.73 165.914,201.246 120.754,203.227 2.95313,203.227 0,371.09 0,455.523 c 0,79.512 -1.96094,259.161 118.801,259.161 49.09,0 70.676,-27.481 90.316,-66.75 l 1.953,1.964 v 56.934 h 93.278 V 207.145"
         style="fill:#161315;fill-opacity:1;fill-rule:nonzero;stroke:none"
         id="path12" /><path
         d="m 479.438,211.078 h -92.266 v 814.802 h 92.266 V 211.078"
         style="fill:#161315;fill-opacity:1;fill-rule:nonzero;stroke:none"
         id="path14" /><path
         d="m 712.047,632.211 c -61.836,-0.977 -57.922,-134.473 -57.922,-173.758 0,-39.269 -3.914,-172.754 57.922,-172.754 68.75,0 60.867,132.508 60.867,172.754 0,40.262 7.883,172.781 -60.867,173.758 z m -147.223,74.621 h 92.254 v -63.82 h 1.969 c 18.652,43.203 38.301,71.672 91.305,71.672 114.847,0 116.8,-181.614 116.8,-262.102 0,-82.461 -2.91,-249.355 -119.754,-249.355 -47.093,0 -69.699,24.55 -88.351,62.832 h -1.969 V 3.07813 H 564.824 V 706.832"
         style="fill:#161315;fill-opacity:1;fill-rule:nonzero;stroke:none"
         id="path16" /><path
         d="m 1031.03,1139.78 c -26.26,0.04 -38.182,4.13 -69.135,4.36 -97.754,0.68 -200.254,-13.07 -255.301,-81.72 -72.449,-90.361 -96.203,-258.846 -171.203,-306.971 50,14.375 80,66.25 169.66,74.848 67.406,6.465 136.824,-1.512 195.254,41.535 59.949,44.551 89.168,126.035 102.995,196.738 4.63,29.22 9.87,48.18 28.34,71.2 l -0.61,0.01"
         style="fill:#9ad42b;fill-opacity:1;fill-rule:nonzero;stroke:none"
         id="path18" /><path
         d="m 1026.17,1137.48 c 0,0 -15.77,-0.84 -74.998,-41.87 0,0 -71.82,-50.38 -148.07,-111.833 C 742.02,934.551 593.141,801.43 593.141,801.43 c -13.368,-12.364 -31.114,-25.887 -29.414,-28.067 0.984,-1.265 16.683,12.813 17.597,13.528 0,0 154.828,123.832 233.028,186.058 38.75,30.841 109.015,91.231 152.289,123.751 37.289,28.02 59.529,40.78 59.529,40.78"
         style="fill:#ffffff;fill-opacity:1;fill-rule:nonzero;stroke:none"
         id="path20" /></g></g></svg>
