<?xml version="1.0" encoding="UTF-8" standalone="no"?>
<!-- Created with Inkscape (http://www.inkscape.org/) -->

<svg
   version="1.1"
   id="svg2"
   xml:space="preserve"
   width="86.720001mm"
   height="91.933334mm"
   viewBox="0 0 86.720001 91.933334"
   sodipodi:docname="party_sp.svg"
   inkscape:version="1.1 (c68e22c387, 2021-05-23)"
   xmlns:inkscape="http://www.inkscape.org/namespaces/inkscape"
   xmlns:sodipodi="http://sodipodi.sourceforge.net/DTD/sodipodi-0.dtd"
   xmlns="http://www.w3.org/2000/svg"
   xmlns:svg="http://www.w3.org/2000/svg"><defs
     id="defs6" /><sodipodi:namedview
     id="namedview4"
     pagecolor="#ffffff"
     bordercolor="#666666"
     borderopacity="1.0"
     inkscape:pageshadow="2"
     inkscape:pageopacity="0.0"
     inkscape:pagecheckerboard="0"
     showgrid="false"
     inkscape:zoom="9.4960115"
     inkscape:cx="43.333983"
     inkscape:cy="45.966667"
     inkscape:window-width="2554"
     inkscape:window-height="1375"
     inkscape:window-x="0"
     inkscape:window-y="32"
     inkscape:window-maximized="1"
     inkscape:current-layer="g8" /><g
     id="g8"
     inkscape:groupmode="layer"
     inkscape:label="ink_ext_XXXXXX"
     transform="matrix(1.3333333,0,0,-1.3333333,0,91.933333)"><g
       id="g10"
       transform="scale(0.1)"><path
         d="m 614.961,615.766 c 0.078,-0.028 0.137,-0.047 0.176,-0.059 1.015,-0.477 1.992,-0.937 2.968,-1.465 -41.816,22.735 -83.632,45.488 -125.429,68.223 -0.703,0.39 -1.406,0.742 -2.129,1.105 -0.254,0.125 -0.547,0.223 -0.801,0.34 -1.172,0.539 -2.344,1.055 -3.535,1.524 -0.469,0.195 -0.938,0.382 -1.406,0.558 -1.66,0.606 -3.379,1.141 -5.117,1.602 -0.02,0 -0.079,0.027 -0.118,0.027 -0.254,0.078 -0.527,0.109 -0.761,0.156 -1.426,0.352 -2.852,0.645 -4.317,0.879 -0.586,0.11 -1.191,0.176 -1.797,0.274 -1.211,0.136 -2.422,0.273 -3.652,0.371 -0.645,0.031 -1.309,0.09 -1.953,0.097 -1.27,0.071 -2.559,0.071 -3.828,0.02 -0.606,-0.008 -1.192,-0.008 -1.797,-0.027 -1.895,-0.098 -3.789,-0.266 -5.684,-0.539 L 70.332,634.684 c -2.1484,-0.305 -4.2578,-0.735 -6.3672,-1.243 -0.5859,-0.136 -1.1523,-0.293 -1.7382,-0.457 -1.6211,-0.441 -3.2032,-0.918 -4.7852,-1.464 -0.5273,-0.188 -1.0547,-0.352 -1.5625,-0.528 -1.9141,-0.722 -3.8086,-1.504 -5.6641,-2.363 -0.0976,-0.039 -0.1757,-0.09 -0.2734,-0.149 -0.5469,-0.242 -1.0742,-0.566 -1.6016,-0.828 -1.5039,-0.754 -3.0078,-1.543 -4.4726,-2.402 -0.7227,-0.441 -1.4453,-0.91 -2.168,-1.379 -0.9375,-0.574 -1.875,-1.121 -2.7734,-1.738 -0.1953,-0.156 -0.3906,-0.36 -0.6055,-0.488 -2.5586,-1.805 -5.0195,-3.77 -7.3828,-5.84 -0.1367,-0.137 -0.293,-0.242 -0.4492,-0.352 -0.3711,-0.351 -0.7031,-0.75 -1.0742,-1.113 -1.7383,-1.61 -3.418,-3.301 -5.0196,-5.059 -0.332,-0.351 -0.7031,-0.672 -1.0351,-1.043 -0.2539,-0.304 -0.4883,-0.656 -0.7617,-0.968 -1.7383,-2.012 -3.3789,-4.102 -4.9414,-6.27 -0.1758,-0.262 -0.4102,-0.496 -0.586,-0.762 -0.0586,-0.047 -0.0781,-0.117 -0.1172,-0.175 -1.8164,-2.606 -3.4765,-5.352 -5.0195,-8.133 -0.1758,-0.325 -0.3906,-0.606 -0.5664,-0.918 -0.4492,-0.852 -0.8594,-1.75 -1.2891,-2.637 -0.3906,-0.754 -0.78122,-1.504 -1.13279,-2.266 -0.72265,-1.593 -1.40625,-3.183 -2.03125,-4.824 -0.23437,-0.566 -0.48828,-1.113 -0.70312,-1.68 -0.03906,-0.128 -0.07813,-0.214 -0.11719,-0.312 -0.44922,-1.242 -0.82031,-2.492 -1.21094,-3.75 -0.33203,-1.035 -0.70312,-2.051 -0.99609,-3.117 -0.37109,-1.414 -0.66406,-2.86 -1.01563,-4.305 -0.21484,-1.016 -0.48828,-2.012 -0.68359,-3.027 -0.29297,-1.602 -0.48828,-3.235 -0.68359,-4.844 -0.11719,-0.879 -0.27344,-1.77 -0.3711,-2.637 -0.234372,-2.531 -0.35156,-5.07 -0.371091,-7.617 L 0,133.988 C -0.0585938,107.426 12.8906,85.8047 32.3242,75.2578 74.1211,52.5039 115.938,29.7695 157.754,7.01563 157.48,7.15234 157.266,7.32813 157.031,7.46484 167.91,1.35156 180.84,-1.32422 194.707,0.628906 L 580.137,54.7891 c 38.164,5.3711 69.453,43.4375 69.531,84.6489 l 0.762,415.996 c 0.058,27.98 -14.297,50.449 -35.469,60.332"
         style="fill:#ee2a3b;fill-opacity:1;fill-rule:nonzero;stroke:none"
         id="path12" /><path
         d="m 168.074,271.762 c -46.051,0 -66.773,23.027 -66.773,52.961 l 2.304,2.304 h 27.625 l 2.305,-2.304 c 0,-16.114 9.207,-25.325 36.848,-25.325 20.722,0 32.234,6.907 32.234,20.723 0,16.113 -9.219,20.723 -41.457,25.324 -32.234,4.61 -57.555,16.125 -57.555,48.364 0,23.015 18.418,43.742 62.168,43.742 43.75,0 62.168,-20.727 62.168,-48.352 l -2.304,-2.304 h -27.629 l -2.305,2.304 c 0,13.817 -6.902,20.723 -32.234,20.723 -20.727,0 -27.629,-6.906 -27.629,-16.113 0,-13.821 9.211,-18.426 41.445,-23.028 32.238,-4.609 57.559,-18.422 57.559,-50.66 0,-25.332 -18.418,-48.359 -66.77,-48.359"
         style="fill:#ffffff;fill-opacity:1;fill-rule:nonzero;stroke:none"
         id="path14" /><path
         d="m 333.82,407.617 h -43.75 l -2.304,-2.297 v -36.843 l 2.304,-2.305 h 43.75 c 13.817,0 23.028,4.609 23.028,20.723 0,16.121 -9.211,20.722 -23.028,20.722 z m 0,-69.078 h -43.75 l -2.304,-2.305 v -59.863 l -2.305,-2.305 h -27.629 l -2.305,2.305 v 156.578 l 2.305,2.305 h 75.988 c 32.235,0 55.262,-16.121 55.262,-48.359 0,-32.243 -23.027,-48.356 -55.262,-48.356"
         style="fill:#ffffff;fill-opacity:1;fill-rule:nonzero;stroke:none"
         id="path16" /></g></g></svg>
