<?xml version="1.0" encoding="UTF-8"?>
<!-- Generator: Adobe Illustrator 21.0.2, SVG Export Plug-In . SVG Version: 6.00 Build 0)  -->
<svg version="1.1" id="Ebene_1" xmlns="http://www.w3.org/2000/svg" xmlns:xlink="http://www.w3.org/1999/xlink" x="0px" y="0px" viewBox="0 0 121.3 76.9" style="enable-background:new 0 0 121.3 76.9;" xml:space="preserve">
<style type="text/css">
	.st0{fill:#FFED00;}
	.st1{fill:#E30613;}
	.st2{fill:#1D1D1B;}
	.st3{fill:#7CB309;}
	.st4{fill:#76B82A;}
	.st5{fill:#2F880E;}
	.st6{fill:#009240;}
</style>
<path class="st0" d="M41.1,17.7c-0.1,0-0.1,0-0.2,0c-0.4,0-0.3,0-0.8,0c-9.2,0.5-16.6,8.2-16.6,17.6c0,0.5,0,1,0.1,1.6  c2-0.2,3.5-0.3,3.5-0.3c8.7-1,25.4-1.5,31.6-1.6C58.4,25.4,50.6,17.7,41.1,17.7z"/>
<path class="st1" d="M28.7,7.2c0,0-5.6-6-7.5-6.7c0,0-0.5-0.4-1.2-0.2c0,0-2.4,0.2-4.6,3.4c0,0-1.8,3-3.6,4c0,0,6.1,3.6,8.3,6  c0,0,2.2,0,4.4-3.2c0,0,1.2,1.8,2.5,0.9c0,0,0.3-0.2,0.8-1c0,0,1.6-1.7,3.6-1.9C31.3,8.5,30.1,8.7,28.7,7.2z M19.5,9.3l-1.2,0.9  l-1.6-1.7L19,7.1c0,0-0.9-1.3-1.8-2c0,0,0.8-1,1.9-1.6l1.7,1.8l2-1.7c0,0,1.1,1.1,1.5,1.8l-1.6,2.1c0,0,1.2,2,1.7,2.6L19.5,9.3z"/>
<polyline points="55.5,21.1 55.6,21.4 66.7,15.6 66.6,15.3 "/>
<polyline points="54.6,20.3 54.8,20.6 62.6,15.4 62.4,15.1 "/>
<polyline points="47.4,16.9 47.6,17.2 57.4,7.5 57.1,7.2 "/>
<polyline points="47,16.1 47.3,16.3 53.5,6.8 53.3,6.6 "/>
<polyline points="59.2,29.1 59.3,29.4 71.8,24.5 71.6,24.2 "/>
<polyline points="60.7,30.1 60.8,30.5 76,26 75.9,25.6 "/>
<polyline points="26.3,13.6 31.2,19.3 31.4,19 26.5,13.4 "/>
<polyline points="23.1,14.2 29,19.7 29.2,19.4 23.4,14 "/>
<polyline points="16.1,19.5 23.6,24.6 23.8,24.3 16.2,19.3 "/>
<polyline points="11.7,21.1 23.4,25.8 23.6,25.5 11.8,20.7 "/>
<polyline points="10.1,26.4 22.8,30.5 22.9,30.1 10.2,26 "/>
<polyline points="6.3,29.8 21,31.6 21.1,31.2 6.4,29.5 "/>
<polyline points="33.2,4.5 37.3,16.7 37.6,16.6 33.5,4.3 "/>
<polyline points="36.9,6.5 38.5,15.8 38.9,15.7 37.2,6.4 "/>
<path d="M23.3,18.6l-0.6,1c0,0-0.5-1.1-1.3-2c0,0-5.4-5.3-11.1-9.9c0,0-0.4-0.9,0.3-0.3c0,0,6.6,5.2,11.5,9.6  C22.1,17,22.8,17.8,23.3,18.6"/>
<path d="M19.9,0c-0.1,0-2.5,0.2-4.7,3.5c0,0-1.8,2.9-3.5,3.9l-0.2,0.1l0.2,0.1c0.1,0,6.1,3.6,8.3,6l0,0.1l0.1,0  c0.1,0,2.3-0.1,4.4-3.1c0.5,0.7,1.6,1.5,2.6,0.8c0,0,0.4-0.2,0.8-1c0,0,1.6-1.6,3.5-1.8v0c0,0,0,0,0,0l0-0.3c0,0,0,0,0,0  c0,0-1.2,0.2-2.5-1.3c-0.2-0.2-5.7-6-7.6-6.8C21.2,0.2,20.7-0.1,19.9,0 M15.5,3.7c2.1-3.1,4.5-3.4,4.5-3.4c0.7-0.1,1.1,0.2,1.1,0.2  l0,0l0,0c1.8,0.7,7.4,6.6,7.5,6.7c0.7,0.7,1.3,1.1,1.8,1.2c-1.6,0.5-2.7,1.7-2.8,1.7c-0.5,0.8-0.7,1-0.8,1c-1.1,0.7-2.2-0.8-2.3-0.9  l-0.1-0.2l-0.1,0.2c-1.9,2.8-3.9,3.1-4.2,3.2c-2-2.2-7-5.2-8.1-5.8C13.7,6.5,15.4,3.8,15.5,3.7z"/>
<path d="M19,3.4C18,4,17.1,5,17.1,5l-0.1,0.1l0.1,0c0.8,0.6,1.6,1.6,1.7,1.9c-0.1,0.1-2.4,1.5-2.4,1.5l1.7,1.8c0,0,1.2-0.9,1.3-1  c0.1,0,5,1,5,1l-0.1-0.2c-0.4-0.5-1.5-2.4-1.6-2.6c0.1-0.1,1.6-2.1,1.6-2.1l0,0c-0.4-0.7-1.5-1.8-1.5-1.8l-0.1-0.1  c0,0-1.9,1.6-2,1.7C20.7,5.1,19,3.4,19,3.4L19,3.4 M19,3.6c0.1,0.1,1.7,1.8,1.7,1.8s1.9-1.6,2-1.7c0.2,0.2,1.1,1.1,1.4,1.7  c-0.1,0.1-1.6,2.1-1.6,2.1l0,0c0,0.1,1.1,1.8,1.5,2.5c-0.4-0.1-4.7-0.9-4.7-0.9s-1.1,0.8-1.2,0.9c-0.1-0.1-1.4-1.5-1.5-1.6  c0.2-0.1,2.4-1.5,2.4-1.5l0-0.1c0-0.1-0.9-1.3-1.8-2C17.5,4.8,18.2,4.1,19,3.6z"/>
<path class="st2" d="M41.6,17.4c0.7-0.5,1.8-0.8,3.4-0.8l0-0.6c-2.2,0-3.5,0.6-4.4,1.5c-9.7,0.2-17.5,8.2-17.5,17.9  c0,0.5,0,1.1,0.1,1.6c0.1,0,0.2,0,0.3,0c0.1,0,0.2,0,0.3,0c0-0.5-0.1-1-0.1-1.5c0-9.2,7.2-16.8,16.3-17.3c-0.7,1.1-0.8,2.2-0.8,2.2  l0.6,0c0-0.1,0-1.3,1-2.3c0.1,0,0.1,0,0.2,0c9.4,0,17.1,7.6,17.3,16.9c0.1,0,0.2,0,0.3,0c0.1,0,0.2,0,0.3,0  C58.8,25.4,51.1,17.7,41.6,17.4"/>
<path class="st2" d="M35.5,23c0,0-2.1-0.4-3.6,0.6c-0.8,0.6-1.4,1.5-1.6,2.7l-0.6-0.1c0.3-1.4,0.9-2.4,1.9-3.1  c1.8-1.2,4-0.8,4.1-0.7L35.5,23"/>
<path class="st2" d="M42,29.9c0.8-0.3,1.1-1.1,1.1-1.1l-0.6-0.2c0,0-0.2,0.5-0.7,0.7c-0.3,0.1-0.7,0-1.2-0.2l-0.3,0.5  C40.9,30,41.5,30.1,42,29.9"/>
<path class="st2" d="M47.1,27.6c-0.4,0-0.8-0.2-1.1-0.6l-0.5,0.4c0.3,0.3,0.6,0.6,0.9,0.7c-0.1,0.7-0.8,3.7-3.6,4.5  c0,0-1.8,1-5.1-0.5c0.3-0.6,0.2-1.3,0.2-1.4l-0.6,0.1c0,0.3,0,1.1-0.5,1.4c-0.4,0.3-1.1,0-1.6-0.2l-0.3,0.6c0.9,0.5,1.7,0.6,2.2,0.2  c0.1,0,0.1-0.1,0.2-0.1c0.4,0.3,1.8,1.3,4.1,1.2c0,0,4.4-0.1,5.7-5.6c0,0,0,0,0.1,0c1-0.1,1.6-1.1,1.6-1.2l-0.5-0.3  C48.2,26.7,47.8,27.5,47.1,27.6"/>
<polyline class="st2" points="44.9,24.1 45.5,23.4 43.6,24.4 45.8,24.5 "/>
<polyline class="st2" points="35.8,28.3 33.8,29.3 34.9,29.2 34.7,30.2 "/>
<path class="st2" d="M37.2,27.4c0.3,0,0.6-0.3,0.6-0.6c0-0.3-0.3-0.6-0.6-0.6c-0.3,0-0.6,0.3-0.6,0.6C36.6,27.2,36.8,27.4,37.2,27.4  "/>
<path class="st2" d="M41.7,24.8c0.3,0,0.6-0.2,0.6-0.6c0-0.3-0.2-0.6-0.6-0.6c-0.3,0-0.6,0.3-0.6,0.6C41.2,24.5,41.4,24.8,41.7,24.8  "/>
<path class="st3" d="M10.8,46.5c2.1,0,6.9-0.2,11.2-0.4c0.4-4.3,4.1-6,4.1-6c4.2-1.9,9.9-1.4,12.3-1h0c0,0,1.1,0.1,1.8,0.4  c2.8,1.4,3.6,4.3,3.8,6c0.6,0,1.1,0,1.7,0l-1-6.5h8.1l0.7,6.6c2.2,0.1,4.2,0.1,6,0.2l3.2-6.8h8L67,46c1,0,2.2,0,3.5,0.1L72,39  l14.5-0.1c7.9,0.7,7.2,7.3,6.9,9c1.4,0.1,2.3,0.2,2.3,0.2c6.2,0.9,13.3,1.5,13.3,1.5c2.1,0,4.1,0.3,5.7,0.6c0.5-1.5,1.4-4.7,1-7.4  c0,0,0.2-2.8-6.5-4c0,0-24.6-4.7-48.5-4c0,0-0.6,0-1.8,0c-0.1,0-0.2,0-0.3,0c-0.1,0-0.2,0-0.3,0c-6.1,0.1-22.5,0.6-31.1,1.6  c0,0-1.5,0.1-3.5,0.3c-0.1,0-0.2,0-0.3,0c-0.1,0-0.2,0-0.3,0c-2.5,0.2-5.6,0.5-7.8,0.6c0,0-7.6,0.6-9.3,3.3c0,0-1.3,1.1,0.3,5.7  C8.7,46.2,10.8,46.5,10.8,46.5"/>
<path class="st4" d="M84,45h-6l-0.3,1.6c2.7,0.2,5.4,0.4,7.9,0.7C85.6,46.7,85.7,45.3,84,45"/>
<path class="st4" d="M35.3,44.3c-3.9-1.1-5,0.5-5,0.5c-0.2,0.4-0.3,0.7-0.4,0.9c2.1-0.1,4.3-0.2,6.5-0.2  C36,44.6,35.3,44.3,35.3,44.3"/>
<path class="st5" d="M117.8,51c0,0-1.2-0.4-3.1-0.8c-1.6-0.3-3.6-0.6-5.7-0.6c0,0-7.1-0.6-13.3-1.5c0,0-0.9-0.1-2.3-0.2  c0,0.3-0.1,0.4-0.1,0.4c-0.9,6.8-8.6,7.1-8.6,7.1h-9l-1.6,7.5h-7.3l3.6-16.8C69.2,46,68,46,67,46l-8.7,16.8h-9.9l-2.8-17.4  c-0.6,0-1.1,0-1.7,0c0.1,0.7,0.1,1.1,0.1,1.1l-7.2,0c-0.1-0.4-0.2-0.8-0.3-1.1c-2.2,0-4.4,0.1-6.5,0.2c-0.1,1,1.2,1.3,1.2,1.3  c2,0.5,5.5,1.2,5.5,1.2c4.2,0.7,5.9,3.1,5.9,3.1c2.7,4.2-0.7,8-0.7,8C37.5,63.7,30.8,63,30.8,63c-6.5,0-8.4-1.7-8.4-1.7  c-3.8-2.4-3-7.6-3-7.6H27c-0.5,2.3,1.3,3.4,1.3,3.4c3.9,1.9,6.6-0.5,6.6-0.5c1.7-1.8-0.9-2.7-0.9-2.7c-2-0.6-7.7-2.1-7.7-2.1  c-4.6-1-4.5-4.9-4.5-4.9c0-0.4,0-0.7,0-1c-4.2,0.2-9,0.4-11.2,0.4c0,0-2.1-0.3-4.3,0c-1.7,0.3-3.4,0.9-4.5,2.3c0,0-2.8,3.5-1.7,7.3  c0,0,1.6,4.7,4.3,7.5c0,0,3.9,5.1,10.5,3.4c0,0,1.6-1,13.3-0.3c0,0,30.9,0.5,40.5,0c0,0,18.9-0.8,37.1,0.3c0,0,9.4,1.4,12.5-2.9  c0,0,2.8-2.4,2.8-6.7C121.3,57.3,121.8,52.7,117.8,51"/>
<path class="st6" d="M85.5,47.4c0,0,0-0.1,0-0.2c-2.5-0.2-5.2-0.5-7.9-0.7l-0.7,3.3l6.5,0C83.4,49.8,85.2,49.7,85.5,47.4"/>
<path class="st6" d="M54.5,55.9l4.9-10.2c-1.8-0.1-3.8-0.1-6-0.2"/>
<path class="st1" d="M72.4,8.5c-0.4-0.2-1-0.2-1.6-0.1c-1.6,0.3-2.6,1.5-2.6,3.2c0,1.5,0.9,2.2,1.7,2.8c0.7,0.5,1.3,1,1.3,1.8  c0,0.3-0.1,1.3-1.2,1.5c-0.5,0.1-0.9-0.1-1.3-0.3l-0.3-0.1l0,1.8l0.1,0.1c0.5,0.3,1.1,0.4,1.7,0.3c1.8-0.3,2.8-1.9,2.8-3.3  c0-1.5-0.6-2.2-1.6-2.9c0,0-1.1-1-1.1-1c-0.2-0.3-0.3-0.5-0.3-0.9c0-0.6,0.4-1.2,1.2-1.4c0.5-0.1,0.8,0,1.1,0.2l0.2,0.1l0-1.8"/>
<path class="st1" d="M78.1,10.9c-0.2,0-0.4,0-0.6,0c-1.5,0.2-2.1,1.7-2.1,3.1c0,1.3,0.6,2.8,2.1,2.6c0.2,0,0.4-0.1,0.6-0.2l0,1.6  c-0.2,0.1-0.5,0.2-0.8,0.3c-2.4,0.4-3.8-1.7-3.8-4c0-2.2,1.4-4.6,3.7-5c0.3,0,0.6,0,0.9,0"/>
<polyline class="st1" points="80.9,8.9 80.9,12.3 82.6,12 82.6,8.6 84.3,8.3 84.3,17.1 82.6,17.3 82.6,13.6 80.9,13.9 80.9,17.6   79.2,17.9 79.2,9.1 "/>
<path class="st1" d="M86.8,7.9l0.7,4.1c0.1,0.6,0.1,1.2,0.2,1.8l0,0c0.1-0.6,0.1-1.3,0.3-1.9l0.8-4.3l1.3-0.2l1.1,5.9h0  c0.1-0.6,0.1-1.2,0.2-1.9l0.7-4.3l1.8-0.3l-1.8,9l-1.5,0.2l-0.9-4.5c-0.1-0.5-0.2-1-0.2-1.6l0,0c-0.1,0.6-0.1,1.1-0.3,1.6l-1,4.8  l-1.5,0.2l-1.7-8.5"/>
<polyline class="st1" points="98.1,6.1 98.1,7.8 96.4,8 96.4,9.9 97.9,9.7 97.9,11.3 96.4,11.6 96.4,13.5 98.1,13.2 98.1,14.9   94.7,15.4 94.7,6.7 "/>
<polyline class="st1" points="101,5.7 101.1,14.4 99.4,14.7 99.4,5.9 "/>
<polyline class="st1" points="107.2,4.7 104.3,12.3 107,11.8 107,13.5 101.8,14.3 104.7,6.7 102.2,7.1 102.2,5.5 "/>
<polyline class="st1" points="111.4,4 111.4,5.6 109.7,5.9 109.7,7.8 111.2,7.6 111.2,9.2 109.7,9.4 109.7,11.4 111.4,11.1   111.4,12.8 108,13.3 108,4.5 "/>
<path class="st1" d="M112.6,12.6l0-8.8l1.7-0.3c1.1-0.2,3-0.4,3,2c0,1-0.4,1.8-1.2,2.5l1.5,3.7l-1.8,0.3l-1.5-3.8l0,0l0,4  L112.6,12.6 M114.3,7.3l0.3,0c0.8-0.1,1.1-0.7,1.1-1.4c0-0.6-0.3-1.1-1.1-0.9l-0.2,0V7.3z"/>
<path class="st1" d="M86.2,20.4l0,5.7c0,0.7-0.1,1.7,0.8,1.5c0.8-0.1,0.8-0.8,0.8-1.4l0-6l1.7-0.3l0,6.4c0,0.9-0.1,2.5-2.5,2.9  c-1.6,0.3-2.5-0.4-2.5-2l0-6.5"/>
<path class="st1" d="M93.8,19.2l2.1,8.4L94,27.9l-0.3-1.4L92,26.7l-0.3,1.5L90,28.5l2-9.1L93.8,19.2 M93,22.9l-0.2-1.3l0,0l-0.2,1.4  l-0.4,2.4l1.2-0.2L93,22.9z"/>
<polyline class="st1" points="98.3,18.5 98.3,25.6 100.1,25.3 100.1,26.9 96.6,27.5 96.6,18.7 "/>
<polyline class="st1" points="102.8,17.8 102.8,26.5 101.1,26.8 101.1,18 "/>
<polyline class="st1" points="108,16.9 108,18.6 106.7,18.8 106.7,25.9 105,26.2 105,19 103.6,19.2 103.6,17.6 "/>
<path class="st1" d="M111.4,16.4l2.1,8.4l-1.8,0.3l-0.3-1.4l-1.7,0.3l-0.3,1.5l-1.7,0.3l2-9.1L111.4,16.4 M109.4,16.1  c-0.5,0.1-0.8-0.2-0.8-0.7c0-0.5,0.4-0.9,0.9-1c0.5-0.1,0.8,0.3,0.8,0.8C110.3,15.5,109.9,16,109.4,16.1z M110.7,20.1l-0.2-1.3l0,0  l-0.2,1.4l-0.4,2.4l1.2-0.2L110.7,20.1z M111.8,15.7c-0.5,0.1-0.8-0.2-0.8-0.7c0-0.5,0.4-0.9,0.9-1c0.5-0.1,0.8,0.3,0.8,0.8  C112.6,15.2,112.2,15.6,111.8,15.7z"/>
<polyline class="st1" points="117.3,15.5 117.3,17.1 116,17.3 116,24.4 114.3,24.7 114.3,17.6 113,17.8 113,16.1 "/>
<path class="st1" d="M84,29.8l-1.5-1.5c0.6-0.9,0.9-2.3,0.9-4.1c0-2-0.5-3.5-1.4-4.2c-0.6-0.5-1.3-0.7-2.1-0.6c-1.7,0.3-3.5,2-3.5,6  c0,2,0.5,3.5,1.4,4.2c0.6,0.5,1.3,0.7,2.1,0.6c0.5-0.1,1-0.3,1.5-0.7l1.4,1.4L84,29.8 M79.2,28.3c-0.7-0.6-0.8-2.3-0.8-3.2  c0-1.4,0.2-3.7,1.6-3.9c0.3,0,0.6,0,0.8,0.2c0.7,0.6,0.8,2.1,0.8,3.2c0,1.1-0.2,3.7-1.6,3.9C79.7,28.5,79.4,28.5,79.2,28.3z"/>
<path d="M7.9,70.9h1.6c1.9,0,2.1,1.3,2.1,3c0,1.5-0.4,3-2,3H7.9V70.9 M8.6,76.3h0.8c1.3,0,1.4-1.3,1.4-2.4c0-1.2-0.1-2.4-1.4-2.4  H8.6V76.3z"/>
<path d="M13.2,70.9h0.7v0.8h-0.7 M13.2,72.4h0.7v4.5h-0.7V72.4z"/>
<path d="M16.2,74.7c0,0.7,0,1.7,0.9,1.7c0.7,0,0.8-0.7,0.8-1h0.7c0,0.5-0.3,1.6-1.5,1.6c-1.1,0-1.6-0.8-1.6-2.3  c0-1.1,0.2-2.4,1.6-2.4c1.4,0,1.5,1.2,1.5,2.2v0.3H16.2 M17.8,74.2v-0.2c0-0.5-0.2-1.1-0.8-1.1c-0.7,0-0.8,0.9-0.8,1.2v0.2H17.8z"/>
<path d="M22.9,70.9h1.5c0.5,0,1.9,0,1.9,1.7c0,1.1-0.7,1.7-1.7,1.7h-0.9v2.5h-0.7V70.9 M23.6,73.8h0.9c0.5,0,1-0.4,1-1.2  c0-0.7-0.3-1.1-1-1.1h-0.8V73.8z"/>
<path d="M27.4,73.8c0-1,0.4-1.5,1.5-1.5c1.4,0,1.4,0.8,1.4,1.3v2.5c0,0.2,0,0.4,0.2,0.4c0.1,0,0.1,0,0.2,0v0.5c-0.1,0-0.2,0-0.4,0  c-0.3,0-0.6,0-0.6-0.6h0c-0.2,0.4-0.7,0.6-1.1,0.6c-0.8,0-1.2-0.5-1.2-1.3c0-0.6,0.3-1.1,0.8-1.2l0.9-0.3c0.5-0.2,0.5-0.3,0.5-0.7  c0-0.4-0.3-0.7-0.7-0.7c-0.8,0-0.8,0.7-0.8,0.9v0H27.4 M29.6,74.4c-0.3,0.3-0.9,0.3-1.2,0.5c-0.2,0.1-0.3,0.3-0.3,0.7  c0,0.5,0.2,0.8,0.6,0.8c0.5,0,0.9-0.4,0.9-0.9V74.4z"/>
<path d="M32,72.4h0.7v0.7h0c0.2-0.4,0.5-0.8,1-0.8c0.1,0,0.2,0,0.3,0.1V73c-0.1,0-0.1,0-0.4,0c-0.4,0-0.9,0.3-0.9,1.1v2.8H32"/>
<path d="M35.4,71.1h0.7v1.3h0.8v0.6h-0.8v2.9c0,0.4,0.1,0.5,0.5,0.5c0.2,0,0.2,0,0.3,0v0.6c-0.1,0-0.3,0-0.6,0  c-0.7,0-0.9-0.3-0.9-0.9v-3.1h-0.7v-0.6h0.7"/>
<path d="M38.7,74.7c0,0.7,0,1.7,0.9,1.7c0.7,0,0.8-0.7,0.8-1H41c0,0.5-0.3,1.6-1.5,1.6c-1.1,0-1.6-0.8-1.6-2.3  c0-1.1,0.2-2.4,1.6-2.4c1.4,0,1.5,1.2,1.5,2.2v0.3H38.7 M40.3,74.2v-0.2c0-0.5-0.2-1.1-0.8-1.1c-0.7,0-0.8,0.9-0.8,1.2v0.2H40.3z"/>
<path d="M42.5,70.9h0.7v0.8h-0.7 M42.5,72.4h0.7v4.5h-0.7V72.4z M83.3,70.9H84v6h-0.7V70.9z"/>
<path d="M50.8,76.9h-0.7v-0.6h0c-0.1,0.3-0.5,0.7-1,0.7c-1.1,0-1.5-0.9-1.5-2.4c0-0.9,0.2-2.4,1.4-2.4c0.4,0,0.8,0.2,1,0.6h0v-2h0.7  V76.9 M49.2,76.4c0.8,0,0.9-0.7,0.9-1.8c0-0.9-0.1-1.8-0.9-1.8c-0.7,0-0.8,0.7-0.8,1.8C48.4,75.7,48.5,76.4,49.2,76.4z"/>
<path d="M53,74.7c0,0.7,0,1.7,0.9,1.7c0.7,0,0.8-0.7,0.8-1h0.7c0,0.5-0.3,1.6-1.5,1.6c-1.1,0-1.6-0.8-1.6-2.3c0-1.1,0.2-2.4,1.6-2.4  c1.4,0,1.5,1.2,1.5,2.2v0.3H53 M54.6,74.2v-0.2c0-0.5-0.2-1.1-0.8-1.1c-0.7,0-0.8,0.9-0.8,1.2v0.2H54.6z"/>
<path d="M58.8,73.7c0-0.6-0.2-0.9-0.7-0.9c-0.2,0-0.7,0.1-0.7,0.7c0,0.5,0.6,0.6,1.1,0.8c0.5,0.2,1.1,0.4,1.1,1.3  c0,0.9-0.6,1.4-1.4,1.4c-1.5,0-1.5-1.1-1.5-1.6h0.7c0,0.5,0.2,1,0.8,1c0.2,0,0.7-0.1,0.7-0.7c0-0.6-0.6-0.7-1.1-0.9  c-0.5-0.2-1.1-0.3-1.1-1.3c0-0.8,0.7-1.2,1.4-1.2c1.3,0,1.4,0.9,1.4,1.4"/>
<polyline points="63.9,70.9 65.1,70.9 66.3,75.6 66.3,75.6 67.5,70.9 68.8,70.9 68.8,76.9 68,76.9 68,71.7 68,71.7 66.7,76.9   65.9,76.9 64.6,71.7 64.6,71.7 64.6,76.9 63.9,76.9 "/>
<path d="M70.5,70.9h0.7v0.8h-0.7 M70.5,72.4h0.7v4.5h-0.7V72.4z"/>
<path d="M73.1,71.1h0.7v1.3h0.8v0.6h-0.8v2.9c0,0.4,0.1,0.5,0.5,0.5c0.1,0,0.2,0,0.3,0v0.6c-0.1,0-0.3,0-0.6,0  c-0.7,0-0.9-0.3-0.9-0.9v-3.1h-0.7v-0.6h0.7"/>
<path d="M76.1,71.1h0.7v1.3h0.8v0.6h-0.8v2.9c0,0.4,0.1,0.5,0.5,0.5c0.2,0,0.2,0,0.3,0v0.6c-0.1,0-0.3,0-0.6,0  c-0.7,0-0.9-0.3-0.9-0.9v-3.1h-0.7v-0.6h0.7"/>
<path d="M79.4,74.7c0,0.7,0,1.7,0.9,1.7c0.7,0,0.8-0.7,0.8-1h0.7c0,0.5-0.3,1.6-1.5,1.6c-1.1,0-1.6-0.8-1.6-2.3  c0-1.1,0.2-2.4,1.6-2.4c1.4,0,1.5,1.2,1.5,2.2v0.3H79.4 M81,74.2v-0.2c0-0.5-0.2-1.1-0.8-1.1c-0.7,0-0.8,0.9-0.8,1.2v0.2H81z"/>
<path d="M87.6,73.7c0-0.6-0.1-0.9-0.7-0.9c-0.2,0-0.7,0.1-0.7,0.7c0,0.5,0.6,0.6,1.1,0.8c0.5,0.2,1.1,0.4,1.1,1.3  c0,0.9-0.6,1.4-1.4,1.4c-1.5,0-1.5-1.1-1.5-1.6h0.7c0,0.5,0.1,1,0.8,1c0.2,0,0.7-0.1,0.7-0.7c0-0.6-0.6-0.7-1.1-0.9  c-0.5-0.2-1.1-0.3-1.1-1.3c0-0.8,0.7-1.2,1.4-1.2c1.3,0,1.4,0.9,1.4,1.4"/>
<path d="M90.1,71.1h0.7v1.3h0.8v0.6h-0.8v2.9c0,0.4,0.1,0.5,0.5,0.5c0.2,0,0.2,0,0.3,0v0.6c-0.1,0-0.3,0-0.6,0  c-0.7,0-0.9-0.3-0.9-0.9v-3.1h-0.7v-0.6h0.7"/>
<path d="M92.7,73.8c0-1,0.4-1.5,1.5-1.5c1.4,0,1.4,0.8,1.4,1.3v2.5c0,0.2,0,0.4,0.2,0.4c0.1,0,0.1,0,0.2,0v0.5c-0.1,0-0.2,0-0.4,0  c-0.3,0-0.6,0-0.6-0.6h0c-0.2,0.4-0.7,0.6-1.1,0.6c-0.8,0-1.2-0.5-1.2-1.3c0-0.6,0.3-1.1,0.8-1.2l0.9-0.3c0.5-0.2,0.5-0.3,0.5-0.7  c0-0.4-0.3-0.7-0.7-0.7c-0.8,0-0.8,0.7-0.8,0.9v0H92.7 M94.8,74.4c-0.3,0.3-0.9,0.3-1.2,0.5c-0.2,0.1-0.3,0.3-0.3,0.7  c0,0.5,0.2,0.8,0.6,0.8c0.5,0,0.9-0.4,0.9-0.9V74.4z"/>
<path d="M97.3,72.4h0.7v0.5h0c0.2-0.4,0.7-0.6,1.1-0.6c1.2,0,1.2,0.9,1.2,1.4v3.2h-0.7v-3.1c0-0.3,0-0.9-0.7-0.9  c-0.4,0-0.9,0.3-0.9,0.9v3.1h-0.7"/>
<path d="M104.8,76.9h-0.7v-0.6h0c-0.1,0.3-0.5,0.7-1,0.7c-1.1,0-1.5-0.9-1.5-2.4c0-0.9,0.1-2.4,1.4-2.4c0.4,0,0.8,0.2,1,0.6h0v-2  h0.7V76.9 M103.3,76.4c0.8,0,0.9-0.7,0.9-1.8c0-0.9-0.2-1.8-0.9-1.8c-0.7,0-0.8,0.7-0.8,1.8C102.5,75.7,102.6,76.4,103.3,76.4z"/>
<path d="M107.1,74.7c0,0.7,0,1.7,0.9,1.7c0.7,0,0.8-0.7,0.8-1h0.7c0,0.5-0.3,1.6-1.5,1.6c-1.1,0-1.6-0.8-1.6-2.3  c0-1.1,0.2-2.4,1.6-2.4c1.4,0,1.5,1.2,1.5,2.2v0.3H107.1 M108.7,74.2v-0.2c0-0.5-0.2-1.1-0.8-1.1c-0.7,0-0.8,0.9-0.8,1.2v0.2H108.7z  "/>
<path d="M112.9,73.7c0-0.6-0.2-0.9-0.7-0.9c-0.2,0-0.7,0.1-0.7,0.7c0,0.5,0.6,0.6,1.1,0.8c0.5,0.2,1.1,0.4,1.1,1.3  c0,0.9-0.6,1.4-1.4,1.4c-1.5,0-1.5-1.1-1.5-1.6h0.7c0,0.5,0.2,1,0.8,1c0.2,0,0.7-0.1,0.7-0.7c0-0.6-0.6-0.7-1.1-0.9  c-0.5-0.2-1.1-0.3-1.1-1.3c0-0.8,0.7-1.2,1.4-1.2c1.3,0,1.4,0.9,1.4,1.4"/>
</svg>