<?xml version="1.0" encoding="UTF-8" standalone="no"?>
<!-- Created with Inkscape (http://www.inkscape.org/) -->

<svg
   width="85.195831mm"
   height="58.994766mm"
   viewBox="0 0 85.195831 58.994766"
   version="1.1"
   id="svg32163"
   inkscape:version="1.3.2 (091e20ef0f, 2023-11-25)"
   sodipodi:docname="ja.svg"
   xmlns:inkscape="http://www.inkscape.org/namespaces/inkscape"
   xmlns:sodipodi="http://sodipodi.sourceforge.net/DTD/sodipodi-0.dtd"
   xmlns="http://www.w3.org/2000/svg"
   xmlns:svg="http://www.w3.org/2000/svg">
  <sodipodi:namedview
     id="namedview32165"
     pagecolor="#ffffff"
     bordercolor="#666666"
     borderopacity="1.0"
     inkscape:pageshadow="2"
     inkscape:pageopacity="0.0"
     inkscape:pagecheckerboard="0"
     inkscape:document-units="mm"
     showgrid="false"
     fit-margin-top="0"
     fit-margin-left="0"
     fit-margin-right="0"
     fit-margin-bottom="0"
     inkscape:zoom="2"
     inkscape:cx="173"
     inkscape:cy="139.25"
     inkscape:window-width="2129"
     inkscape:window-height="1133"
     inkscape:window-x="0"
     inkscape:window-y="0"
     inkscape:window-maximized="0"
     inkscape:current-layer="text113379"
     inkscape:showpageshadow="2"
     inkscape:deskcolor="#d1d1d1" />
  <defs
     id="defs32160">
    <rect
       x="105.58179"
       y="63.995972"
       width="173.72888"
       height="114.79272"
       id="rect3734" />
    <rect
       x="113.92185"
       y="162.33429"
       width="492.5661"
       height="234.32812"
       id="rect35482" />
  </defs>
  <g
     inkscape:groupmode="layer"
     id="layer3"
     inkscape:label="bg">
    <path
       id="path67818"
       style="fill:#000000;stroke-width:1"
       d="M 161.36328 0 C 54.710815 0 3.2434418 0.33414293 1.9335938 1.0351562 C 0.039320956 2.0489356 0 4.3334117 0 111.48633 C 0 214.63705 0.10020598 220.96096 1.75 221.92188 C 2.918029 222.60231 55.936105 222.9518 161.17773 222.9707 C 303.21463 222.99792 319.0122 222.84528 320.42773 221.42969 C 321.83701 220.02045 322 208.67389 322 111.5 C 322 14.326069 321.83699 2.9815152 320.42773 1.5722656 C 319.01245 0.15699916 303.20658 0 161.36328 0 z M 11 11 L 161 11 L 311 11 L 311 111.5 L 311 212.00195 L 161 212.00195 L 11 212.00195 L 11 111.5 L 11 11 z M 15.5 15.5 L 15.4375 111.64062 L 15.376953 207.78516 L 15.5 207.78516 L 15.5 15.5 z "
       transform="scale(0.26458333)" />
  </g>
  <g
     inkscape:groupmode="layer"
     id="layer2"
     inkscape:label="Layer 2" />
  <g
     inkscape:label="Layer 1"
     inkscape:groupmode="layer"
     id="layer1"
     transform="translate(-53.799151,-73.073405)">
    <text
       xml:space="preserve"
       transform="scale(0.26458333)"
       id="text35480"
       style="font-style:normal;font-weight:normal;font-size:40px;line-height:1.25;font-family:sans-serif;white-space:pre;shape-inside:url(#rect35482);display:inline;fill:#000000;fill-opacity:1;stroke:none" />
    <text
       xml:space="preserve"
       transform="matrix(0.26458333,0,0,0.26458333,53.799151,73.073405)"
       id="text3732"
       style="font-style:normal;font-weight:normal;font-size:40px;line-height:1.25;font-family:sans-serif;white-space:pre;shape-inside:url(#rect3734);display:inline;fill:#000000;fill-opacity:1;stroke:none" />
    <text
       xml:space="preserve"
       style="font-size:35.2777px;line-height:1.25;font-family:'Beth Ellen';-inkscape-font-specification:'Beth Ellen, Normal';stroke-width:0.264583"
       x="60.803898"
       y="169.45525"
       id="text30532"><tspan
         sodipodi:role="line"
         id="tspan30530"
         style="stroke-width:0.264583"
         x="60.803898"
         y="169.45525" /></text>
    <g
       aria-label="ja"
       id="text113379"
       style="font-size:35.2777px;line-height:1.25;font-family:'Beth Ellen';-inkscape-font-specification:'Beth Ellen, Normal';stroke-width:0.264583">
      <path
         style="font-size:42.3333px;font-family:UnifrakturCook;-inkscape-font-specification:UnifrakturCook;stroke-width:0.0700042"
         d="m 83.178245,99.831941 3.121254,-3.927406 4.630205,2.170408 q -0.227376,0.847493 -0.496094,1.653645 -0.248046,0.806152 -0.39274,2.170412 -0.144694,1.34358 -0.144694,3.20393 0,1.83968 -0.04134,3.61735 -0.04134,1.77767 -0.992187,5.84977 -0.950846,4.0721 -4.113441,11.82356 -0.661458,-0.64079 -2.191079,-1.01286 1.343586,-4.85758 1.674315,-9.9012 0.330729,-5.04361 0.413411,-10.06656 l 0.06201,-3.59668 q 0,-0.99218 -1.529621,-1.984369 z m 0.620116,-4.113441 1.653645,-8.16487 6.180497,2.459796 z m 8.826328,6.82128 8.061521,-6.552563 9.13638,4.278803 q -1.6123,1.4056 -1.63297,3.1626 l -0.0827,6.84195 q 0,0.7028 0.72347,1.59164 0.74414,0.88883 1.40559,1.42626 l -4.17545,4.29948 -3.20393,-3.28662 q -1.15756,0.93018 -2.33578,1.71566 -1.17822,0.76481 -2.108395,1.6123 -3.100583,-1.15755 -5.787756,-3.57601 0.764811,-0.97151 0.888834,-2.83186 l -0.06201,-6.24251 q 0,-0.0827 0,-0.16536 0,-1.21957 -0.826822,-2.27377 z m 7.090001,-1.59163 q -1.198892,1.79834 -1.198892,3.20394 v 5.06428 q 0,1.5503 0.558105,2.21175 0.475423,0.68213 0.868163,1.21957 0.413414,0.53743 1.302244,0.78548 l 1.69499,-1.21957 v -9.50845 z"
         id="text1"
         aria-label="ja" />
    </g>
  </g>
</svg>
